<?xml version="1.0" encoding="UTF-8"?>
<svg id="_Слой_2" data-name="Слой 2" xmlns="http://www.w3.org/2000/svg" viewBox="0 0 39.54 40">
  <defs>
    <style>
      .cls-1 {
        fill: #fff;
      }

      .cls-2 {
        fill: #ff2759;
      }
    </style>
  </defs>
  <g id="_Слой_1-2" data-name="Слой 1">
    <ellipse class="cls-2" cx="19.77" cy="20" rx="19.77" ry="20"/>
    <path class="cls-1" d="m12.7,10.4c.66.6.76,1.23.32,1.98-.07.12-.09.27-.1.41.53-.94.91-1.93,1.13-2.98.01-.07-.03-.16-.02-.23,0-.05.04-.12.08-.14.04-.02.14,0,.16.02.03.05.04.13.02.19-.15.45-.3.89-.46,1.34.02.01.05.02.07.03.36-.54.71-1.08,1.07-1.61.03-.05.11-.11.16-.1.05,0,.13.08.14.13,0,.05-.04.13-.09.17-.17.15-.34.29-.56.46.36.15.55-.02.75-.18.05-.04.13-.06.2-.08,0,0,.06.09.05.1-.05.05-.1.11-.17.13-.28.09-.56.17-.84.25-.01-.03-.02-.06-.04-.09-.15.21-.3.43-.47.67h.99c-.15.67-.57,1.14-1.55.98-.51.95-.88,1.95-1.07,3.03.05-.09.1-.18.14-.27.45-.89,1.05-1.65,1.8-2.3.09-.08.14-.2.22-.28.04-.04.14-.08.18-.05.06.03.11.12.11.18,0,.05-.07.11-.13.14-.18.1-.38.16-.53.3-.27.24-.51.52-.72.84.28-.16.57-.33.86-.48.05-.03.14-.03.19-.01.03.01.05.11.04.16-.02.04-.08.08-.13.1-.24.08-.5.13-.72.25-.49.27-.88.74-1.02,1.16.36-.24.74-.5,1.12-.76.04-.02.09-.04.13-.03.02,0,.06.07.05.09-.02.04-.06.08-.1.09-.61.14-1,.56-1.34,1.04-.31.45-.43.96-.44,1.57.06-.13.1-.2.13-.27.21-.51.57-.89.99-1.22.14-.11.26-.25.34-.4.36-.71,1-.88,1.65-.42.07.05.11.21.09.29-.28.76-.87.99-1.58.59-.15-.08-.25-.08-.38.01-.79.54-1.16,1.31-1.2,2.26.15-.27.33-.54.46-.83.19-.43.54-.64,1.06-.57-.05.47-.26.78-.67.83-.59.07-.76.51-.88.95-.08.3-.02.64.05.96.12-.45.25-.9.38-1.35.02-.06.08-.12.14-.13.04-.01.12.03.14.08.02.04.02.14-.01.17-.46.33-.42.84-.52,1.31-.03.14,0,.28,0,.49.07-.18.11-.3.15-.43.24-.71.67-1.28,1.24-1.75.18-.15.42-.25.65-.32.22-.07.41.04.5.26.09.23-.03.44-.23.5-.22.06-.49.07-.7,0-.29-.1-.49-.07-.69.17-.37.45-.6.96-.77,1.52.42-.44.83-.86,1.24-1.29.04-.04.09-.07.14-.08.02,0,.07.06.07.08-.01.05-.04.12-.08.14-.51.28-.86.71-1.18,1.17-.04.06-.07.14-.14.27.66-.4,1.27-.74,1.85-1.12.62-.39,1.27-.47,2.02-.27-.1.1-.16.18-.24.24-.53.44-1.15.61-1.83.49-.25-.05-.46,0-.67.12-.32.18-.63.36-.93.6h6.99c-.13-.38-.25-.72-.38-1.06-1.29-3.55-2.59-7.1-3.88-10.66-.06-.15-.05-.36,0-.52.69-1.81,1.4-3.61,2.09-5.42.08-.2.17-.27.39-.27,1.3.01,2.59.02,3.89,0,.26,0,.37.07.46.31,3.38,8.74,6.77,17.48,10.16,26.22.35.91.76,1.79,1.57,2.4.22.17.48.32.75.39.22.06.27.16.26.36-.01.16,0,.32,0,.48h-14.93v-.76c.48-.06.95-.11,1.42-.18,1.31-.19,1.76-.77,1.44-2.04-.23-.94-.59-1.84-.91-2.75-.63-1.79-1.28-3.57-1.91-5.35-.08-.23-.19-.31-.44-.31-2.66.01-5.33.01-7.99,0-.25,0-.36.08-.44.31-.56,1.64-1.15,3.27-1.67,4.92-.3.95-.43,1.95-.3,2.96.13,1.01.62,1.73,1.61,2.02.61.18,1.25.28,1.88.36.29.04.4.11.36.4-.02.15,0,.3,0,.42H4.35v-.78c1.38-.34,2.16-1.36,2.73-2.53.73-1.49,1.34-3.04,1.97-4.57.54-1.32,1.05-2.65,1.55-3.99.1-.28.23-.41.54-.38.28.03.57,0,.85,0,0-.03,0-.05.01-.08-.1-.02-.2-.04-.3-.07-.07-.02-.14-.05-.21-.08.01-.03.03-.07.04-.1.14.03.28.07.43.1l.03-.06c-.14-.08-.29-.15-.42-.23-.05-.03-.07-.09-.11-.14.06,0,.14-.03.18,0,.15.1.3.21.5.36-.06-.26-.07-.47-.16-.65-.04-.08-.22-.08-.35-.11-.19-.04-.41-.04-.58-.12-.26-.13-.33-.43-.21-.62.13-.21.42-.25.68-.07.12.08.21.19.33.3.01-.3-.11-.46-.36-.6-.71-.37-.98-1.14-.69-1.94.3.22.59.43.91.67-.06-.4-.08-.8-.18-1.18-.22-.81-.1-1.53.45-2.22.31.66.4,1.33.03,1.92-.34.56-.26,1.1-.17,1.67.03.23.1.45.14.6.17-.91.34-1.88.52-2.84.09-.45.2-.89.3-1.34.04-.21-.02-.38-.16-.55-.5-.62-.46-1.31.07-1.89Z"/>
  </g>
</svg>