<?xml version="1.0" encoding="UTF-8"?>
<svg id="_Слой_2" data-name="Слой 2" xmlns="http://www.w3.org/2000/svg" viewBox="0 0 55.67 57.25">
  <defs>
    <style>
      .cls-1 {
        fill: #fff;
      }
    </style>
  </defs>
  <g id="_Слой_1-2" data-name="Слой 1">
    <g>
      <path class="cls-1" d="m19.83,9.44q1.25,2.31-.38,4.19c1.03,1.06,2.05,2.11,3.14,3.24.7-.54,1.39-1.06,2.06-1.61.91-.75,1.56-.81,2.4.02,1.45,1.43,2.85,2.91,4.22,4.43.4.45.69.54,1.29.39,3.65-.9,7.26-.77,10.66.94,3.83,1.92,7.12,4.54,9.63,8.07,3.01,4.23,3.24,8.94,2.37,13.82-.66,3.68-1.99,7.05-5.08,9.39-3.31,2.5-7.05,4.08-11.17,4.71-4.19.64-8.17-.15-11.88-2.03-4.94-2.5-7.35-6.84-8.01-12.17-.48-3.9-.28-7.78,1.23-11.51.24-.59.2-1.5-.11-2.05-1.04-1.87-2.25-3.65-3.41-5.46-.11-.18-.28-.34-.45-.46-1.05-.74-1.06-1.11,0-1.88.47-.34.97-.62,1.54-.98-.76-.95-1.43-1.79-2.1-2.63-.44-.55-.9-.54-1.36-.02-.1.11-.21.2-.32.3-1.35,1.34-1.49,1.33-2.67-.17-.09-.11-.2-.21-.5-.53-.85,2.77-1.65,5.38-2.46,8.02.6.28,1.04.58,1.52.69,1.47.31,2.2,1.36,2.71,2.61,1.88,4.64,2.25,9.39.96,14.24-.54,2.03-1.83,3.57-3.43,4.81-1.98,1.53-4.61,1.1-6.51-1.08-.83-.95-1.61-2.04-2.05-3.2-1.37-3.66-2.28-7.47-1.23-11.33.78-2.85,2.06-5.56,5.03-6.93.19-.09.33-.44.37-.69.37-2.73.98-5.38,2.32-7.81.28-.51.21-.82-.19-1.22-2.32-2.34-2.25-2.55.18-4.9,1.84-1.78,3.62-3.57,6.08-4.53,1.54-.6,1.79-.64,3,.43.17.15.52.26.73.2.68-.2,1.39-.52,1.88.22.53.81.93,1.71-.03,2.49Zm31.58,20.17c-1.46-2.46-4.42-4.69-7.58-6.7-3.19-2.02-6.67-2.36-10.31-1.84-1.06.15-2.02.46-2.5,1.6-.17.41-.57.76-.94,1.05-2.08,1.59-4.17,3.19-6.29,4.72-.89.65-1.92,1.11-1.55,2.54.07.25-.22.6-.34.9-.28.71-.66,1.4-.81,2.14-.61,2.98-.86,6-.37,9.02.71,4.37,2.61,8.09,6.64,10.26,7.83,4.2,15.7,2.32,22.03-2.44,2.77-2.08,3.8-5.17,4.37-8.43.73-4.2.62-8.28-2.35-12.81ZM3.89,44.67c.74.61,1.6,1.44,2.6,2.07.82.52,1.88.68,2.65-.09.97-.96,2.16-1.94,2.6-3.15,1.83-5,1.31-9.96-.99-14.73-.18-.37-.65-.72-1.05-.83-1.18-.3-2.42-.39-3.58-.74-.68-.2-1.12-.03-1.4.45-.96,1.66-2.25,3.26-2.7,5.05-1,4.05.13,7.92,1.86,11.95Zm17.45-15.95c2.78-2.1,5.39-4.06,7.99-6.04.28-.22.48-.54.71-.82.46-.57.45-1.09-.1-1.63-1.1-1.06-2.21-2.12-3.25-3.24-.55-.59-.93-.55-1.54-.08-2.3,1.78-4.65,3.5-6.98,5.25-.25.19-.47.42-.61.55,1.26,1.99,2.46,3.89,3.79,6Zm-8.56-11.25c2.11-1.87,4.16-3.65,6.16-5.5.18-.17.2-.79.04-1.01-.9-1.19-1.85-2.33-2.85-3.44-.16-.17-.67-.16-.96-.06-2.76.95-4.51,3.2-6.58,5.22,1.4,1.6,2.75,3.14,4.19,4.78Zm6.03,2.4c.89-.69,1.77-1.37,2.84-2.19-1.1-1.16-2.1-2.21-3.14-3.3-.92.8-1.67,1.46-2.36,2.07.9,1.16,1.72,2.22,2.66,3.42Zm-8.97-3.02c-1.15.77-2.72,5.91-2.37,7.34.78-2.41,1.53-4.74,2.37-7.34Z"/>
      <path class="cls-1" d="m23.07,0c.13,1.67-1.64,4.61-2.84,4.84,1.2-1.47,1.22-3.61,2.84-4.84Z"/>
      <path class="cls-1" d="m25.31,6.62c-.57.99-1.26,1-2.6.11.91-.7,1.72-.14,2.6-.11Z"/>
      <path class="cls-1" d="m27.22,7c.67.02,1.35.04,2.02.06,0,.2,0,.4-.01.6-.67-.02-1.34-.05-2-.07,0-.2,0-.39,0-.59Z"/>
      <path class="cls-1" d="m18.8,19.87c-.93-1.2-1.75-2.26-2.66-3.42.7-.61,1.45-1.27,2.36-2.07,1.04,1.09,2.04,2.15,3.14,3.3-1.07.82-1.95,1.5-2.84,2.19Z"/>
    </g>
  </g>
</svg>