<?xml version="1.0" encoding="UTF-8"?>
<svg id="_Слой_2" data-name="Слой 2" xmlns="http://www.w3.org/2000/svg" viewBox="0 0 47.39 40.71">
  <defs>
    <style>
      .cls-1 {
        fill: #fff;
      }
    </style>
  </defs>
  <g id="_Слой_1-2" data-name="Слой 1">
    <g>
      <path class="cls-1" d="m17.73,22.03c.64.61.64.75.14,1.28-.07.08-.12.2-.15.3-.49,1.65-.91,3.32-1.49,4.94-1.02,2.85-2.09,5.69-3.22,8.5-.34.86-.92,1.63-1.46,2.39-.22.3-.61.55-.97.66-1.95.57-3.94.81-5.95.43-1.48-.28-2.7-1.08-3.31-2.44-.57-1.25-.9-2.62-1.25-3.96-.2-.76.03-1.52.39-2.23,1.29-2.5,3.27-4.08,6.07-4.63,1.44-.28,2.87-.15,4.3-.04.66.05,1.15-.22,1.47-.8.75-1.34,1.49-2.69,2.28-4.01.24-.4.63-.71.95-1.07.1-.11.18-.24.24-.37.4-.86.79-1.73,1.21-2.65-1.5-.63-2.66-1.72-3.78-2.85-1.87-1.88-2.97-4.13-3.02-6.8-.04-2.02.02-4.05.08-6.07,0-.27.19-.7.39-.77.21-.07.63.12.81.32,1.73,2,3.42,4.03,5.13,6.04,1.19,1.4,2.38,2.8,3.59,4.22.81-1.62,1.61-3.14,2.35-4.7.65-1.36,1.17-2.78,1.87-4.11.59-1.14,1.33-2.2,2.04-3.27.3-.46.67-.46,1.03-.03.39.48.78.97,1.07,1.51,1.41,2.65,1.53,5.43.68,8.28-.54,1.81-1.27,3.53-2.2,5.16-.53.92-1.24,1.73-1.94,2.68.46.68.99,1.42,1.48,2.19.17.27.38.34.61.19.81-.51,1.4-.08,2.02.41.88.69,1.8,1.34,2.7,2,.34.25.67.21,1.08.11,1.73-.4,3.46-.75,5.2-1.08,1.2-.23,2.4-.14,3.59.11,2.11.46,3.55,1.75,4.57,3.61,1.92,3.46,1.05,8.13-1.42,10.65-1.35,1.38-3.07,2.2-5.01,2.44-.91.11-1.71-.28-2.31-.9-1.05-1.08-2.05-2.21-2.99-3.38-1.46-1.81-2.85-3.68-4.26-5.53-.99-1.29-1.99-2.56-2.95-3.87-.47-.63-.86-1.32-1.28-1.98-.05-.08-.12-.18-.12-.27-.06-1.07-.91-1.69-1.41-2.51-.28-.46-.46-.43-.86-.07-.83.75-1.8,1.18-2.92,1.34-1,.14-1.99.39-3.09.61Zm8.77.36c1.51,2,2.92,3.88,4.35,5.75,1.43,1.86,2.86,3.71,4.34,5.53.9,1.12,1.85,2.2,2.83,3.25.48.52,1.11.89,1.87.79,1.79-.24,3.4-.99,4.56-2.33,1.85-2.14,2.53-4.71,1.89-7.5-.46-2.04-1.48-3.79-3.47-4.73-1.79-.84-3.67-.79-5.56-.38-1.49.32-2.97.67-4.45,1.01-.74.17-1.3-.2-1.85-.59-.91-.66-1.79-1.34-2.71-1.99-.13-.09-.44-.12-.54-.03-.45.38-.85.8-1.27,1.22ZM7.41,39.86c.78-.15,1.81-.32,2.84-.57.29-.07.63-.3.79-.56.57-.93,1.17-1.85,1.57-2.85,1.18-2.99,2.28-6.01,3.39-9.03.33-.89.57-1.82.9-2.71.24-.64.07-1.11-.37-1.59-.44-.48-.69-.5-1.02.07-.78,1.38-1.56,2.77-2.31,4.17-.54,1-1.39,1.47-2.5,1.35-1.58-.17-3.15-.24-4.73.2-1.74.49-3.01,1.53-4.07,2.92-.93,1.23-1.19,2.55-.64,4.01.2.53.34,1.09.53,1.62.6,1.71,1.83,2.63,3.6,2.85.58.07,1.17.06,2.03.11ZM10.96,2.9c-.04.32-.09.55-.09.77,0,1.61-.03,3.21.04,4.82.18,4.19,2.6,6.94,6.02,8.93,1.34.78,2.93.89,4.45,1.15,1.12.19,2.24.35,3.48.54-.15-.25-.21-.41-.31-.53-4.51-5.2-9.01-10.4-13.6-15.69Zm13.59,14.21c.08-.06.17-.09.21-.15.6-.84,1.32-1.62,1.78-2.54.72-1.45,1.34-2.96,1.86-4.49.89-2.62.74-5.21-.53-7.69-.23-.45-.55-.85-.9-1.4-.58.92-1.14,1.68-1.56,2.51-.62,1.24-1.11,2.54-1.73,3.79-.88,1.77-1.8,3.51-2.74,5.25-.21.38-.21.64.14.94.39.34.72.75,1.07,1.13.8.87,1.59,1.75,2.4,2.64Zm-1.84,2.53c-.14-.04-.21-.07-.29-.09-1.47-.29-2.95-.57-4.42-.89-.31-.07-.38.11-.47.3-.28.59-.52,1.2-.84,1.76-.25.45-.06.66.26.86.2-.14.37-.25.53-.37.38-.29.78-.38,1.29-.37.63.01,1.27-.25,1.91-.36.72-.12,1.4-.3,2.03-.84Z"/>
      <path class="cls-1" d="m26.5,22.38c.42-.41.82-.84,1.27-1.22.1-.09.41-.06.54.03.91.65,1.8,1.33,2.71,1.99.55.4,1.11.76,1.85.59,1.48-.34,2.96-.69,4.45-1.01,1.89-.41,3.77-.46,5.56.38,1.99.94,3.01,2.69,3.47,4.73.63,2.79-.04,5.36-1.89,7.5-1.16,1.34-2.76,2.09-4.56,2.33-.76.1-1.39-.27-1.87-.79-.98-1.05-1.93-2.13-2.83-3.25-1.47-1.82-2.91-3.67-4.34-5.53-1.44-1.87-2.84-3.75-4.35-5.75Zm17.83,7.15c-.29-.89-.62-2-1.01-3.07-.39-1.07-1.27-1.59-2.34-1.84-1.67-.39-3.33-.18-4.97.17-1.09.23-1.52,1.1-.97,2.05.6,1.04,1.24,2.07,1.95,3.03,1.04,1.41,2.36,2.5,4.02,3.13.68.26,1.33.24,1.82-.27.79-.81,1.33-1.79,1.48-3.2Z"/>
      <path class="cls-1" d="m7.41,39.86c-.86-.04-1.45-.03-2.03-.11-1.77-.22-3-1.15-3.6-2.85-.19-.54-.33-1.09-.53-1.62-.56-1.47-.3-2.79.64-4.01,1.06-1.39,2.33-2.44,4.07-2.92,1.58-.44,3.15-.36,4.73-.2,1.11.12,1.96-.35,2.5-1.35.75-1.4,1.53-2.78,2.31-4.17.33-.58.58-.55,1.02-.07.44.48.6.96.37,1.59-.33.89-.57,1.82-.9,2.71-1.11,3.02-2.21,6.04-3.39,9.03-.4,1-1,1.93-1.57,2.85-.16.26-.49.49-.79.56-1.02.25-2.06.42-2.84.57Zm-4.86-5.8c.03,1.31.4,2.24,1.14,2.96,1.45,1.42,3.76,1.19,4.97-.45.21-.28.43-.56.62-.85.97-1.48,1.56-3,.76-4.8-.53-1.19-1.36-1.84-2.63-1.81-.27,0-.53.02-.8.03-.77,0-1.39.31-1.86.92-.48.62-.96,1.25-1.45,1.86-.57.7-.79,1.5-.75,2.13Z"/>
      <path class="cls-1" d="m44.33,29.53c-.16,1.41-.69,2.38-1.48,3.2-.49.51-1.15.53-1.82.27-1.67-.63-2.99-1.72-4.02-3.13-.71-.97-1.35-1.99-1.95-3.03-.55-.95-.12-1.81.97-2.05,1.64-.35,3.3-.56,4.97-.17,1.07.25,1.94.77,2.34,1.84.4,1.08.72,2.18,1.01,3.07Zm-8.9-2.93c1.02,1.28,2.04,2.64,3.15,3.93.7.82,1.65,1.34,2.68,1.72.6.22,1.02.07,1.36-.47.7-1.11.96-2.25.36-3.5-.22-.45-.36-.94-.54-1.4-.29-.74-.89-1.1-1.63-1.26-1.11-.24-2.22-.26-3.33-.06-.74.13-1.57.1-2.03,1.04Z"/>
      <path class="cls-1" d="m2.54,34.06c-.04-.63.18-1.43.75-2.13.5-.61.97-1.23,1.45-1.86.47-.62,1.09-.92,1.86-.92.27,0,.53-.02.8-.03,1.27-.04,2.11.62,2.63,1.81.8,1.79.21,3.31-.76,4.8-.19.29-.41.57-.62.85-1.22,1.63-3.52,1.86-4.97.45-.74-.72-1.11-1.65-1.14-2.96Zm.66.27c.16.47.27.96.5,1.4.92,1.77,2.55,1.81,3.85.71,1.07-.91,1.79-2.16,1.89-3.66.04-.56-.09-1.05-.43-1.5-.58-.78-2.46-1.39-3.34-1.06-.11.04-.21.16-.29.26-.51.64-1.01,1.29-1.52,1.93-.44.55-.59,1.19-.66,1.91Z"/>
      <path class="cls-1" d="m19.33,16.39c0-.41.11-.83.57-1.03.44-.19.79.01,1.13.31.47.42.84.86.65,1.55-.18.63-.63.89-1.26.69-.63-.2-1.06-.78-1.09-1.53Zm.65.14c.3.28.5.47.76.72.12-.64-.07-.84-.76-.72Z"/>
    </g>
  </g>
</svg>