<?xml version="1.0" encoding="UTF-8"?>
<svg id="_Слой_2" data-name="Слой 2" xmlns="http://www.w3.org/2000/svg" viewBox="0 0 91.46 68.56">
  <defs>
    <style>
      .cls-1 {
        fill: #fff;
      }
    </style>
  </defs>
  <g id="_Слой_1-2" data-name="Слой 1">
    <g>
      <path class="cls-1" d="m34.4,56.08c-.65.16-1.14.32-1.65.39-8.36,1.19-16.73,2.36-25.09,3.55-1.95.28-1.95.3-2.22-1.6-1.44-10-2.87-19.99-4.32-29.99-.18-1.22-.36-2.43-.57-3.64-.1-.57-.03-.86.67-.96,8.14-1.13,16.28-2.3,24.42-3.46,1.08-.15,2.17-.31,3.35-.33-4.98,5.57-7.02,11.99-6.05,19.29.98,7.39,5,12.8,11.46,16.74Z"/>
      <path class="cls-1" d="m62.15,52.12c5.1-5.58,7.41-11.94,6.27-19.28-1.13-7.25-4.74-12.97-11.25-16.83,9.46-1.35,18.92-2.7,28.47-4.06,1.71,11.96,3.42,23.99,5.15,36.09-9.55,1.36-19.03,2.71-28.64,4.09Zm14.18-32.53c1.37-.2,2.75-.42,4.13-.58.95-.11,1.3-.64,1.18-1.52-.11-.8-.3-1.59-.42-2.38-.1-.65-.47-.89-1.08-.82-2.82.34-5.65.63-8.45,1.07-1.6.25-1.67.5-1.43,2.09.07.48.14.96.23,1.43.22,1.18.55,1.43,1.72,1.28,1.38-.17,2.75-.39,4.13-.58Z"/>
      <path class="cls-1" d="m69.76,12.39c-4.81.69-9.61,1.42-14.43,2.02-1.05.13-2.2-.08-3.23-.39-4.08-1.23-8.19-1.22-12.28-.21-2.75.68-5.23,2.04-7.64,3.52-.46.28-.99.52-1.51.6-9.83,1.43-19.67,2.83-29.51,4.24-.5.07-.92.11-1.02-.52-.45-2.78,0-5.56,3.13-7,.89-.41,1.92-.58,2.9-.72,6.98-1.02,13.96-2.02,20.96-2.97,1.08-.15,1.6-.55,1.89-1.65.48-1.84,1.21-3.62,1.81-5.43.29-.88.78-1.38,1.76-1.51,4.59-.61,9.17-1.28,13.75-1.93.77-.11,1.55-.19,2.3-.36,1.06-.25,1.78.12,2.36,1.01,1.06,1.62,2.24,3.17,3.26,4.82.49.78,1,1.03,1.9.9,6.95-1.02,13.91-2.01,20.86-2.99.86-.12,1.74-.22,2.61-.23,3.13,0,5.79,2.75,5.77,5.89,0,.62-.31.72-.84.79-4.94.68-9.87,1.4-14.81,2.1,0,0,0,.01,0,.02ZM41.17,3.37s0,0,0,0c-.9.13-1.79.26-2.69.38-3.12.41-3.17.48-2.61,3.57.25,1.37.46,1.57,1.88,1.4,2.53-.31,5.06-.69,7.59-1.06.41-.06.85-.13,1.21-.32.26-.14.58-.52.56-.75-.11-1.02-.29-2.04-.55-3.03-.16-.64-.66-.89-1.36-.77-1.34.22-2.69.39-4.03.58Zm-20.92,14.04c1.01-.14,1.22-.39,1.1-1.29-.13-.96-.5-1.22-1.53-1.07-.73.1-1.09.43-.94,1.23.18,1.02.43,1.27,1.37,1.13Zm3.24-.47c1.01-.14,1.32-.49,1.23-1.27-.09-.79-.66-1.27-1.38-1.16-.8.13-1.2.71-1.11,1.54.1.9.66,1,1.26.89Z"/>
      <path class="cls-1" d="m49.58,63.28c-11.8,1.68-23.59,3.37-35.39,5.04-.99.14-2.02.32-2.99.19-2.98-.4-5.03-2.54-5.22-5.92-.01-.22.33-.6.58-.67.55-.17,1.15-.19,1.72-.27,9.17-1.31,18.33-2.64,27.51-3.9,1.01-.14,2.13-.01,3.12.27,7.21,2.07,13.87,1.01,20.08-3.21.66-.45,1.55-.62,2.37-.74,3.91-.59,7.82-1.12,11.73-1.68,5.67-.8,11.35-1.59,17.02-2.44.86-.13,1.07.12,1.23.94.7,3.42-1.69,6.7-5.21,7.18-12.19,1.65-24.37,3.44-36.55,5.18,0,0,0,.02,0,.02Z"/>
      <path class="cls-1" d="m66.66,33.04c1.57,11.53-5.96,21.94-17.47,23.89-11.73,1.99-22.64-5.97-24.43-17.56-1.8-11.66,6.24-22.79,17.9-24.3,12.84-1.66,22.35,7.2,24,17.97Zm-2.99.25c-1.19-9.41-10.53-16.93-20.93-15.24-9.63,1.56-16.59,10.91-15.15,20.55,1.52,10.09,10.67,16.92,20.68,15.46,9.98-1.46,17.09-10.67,15.4-20.77Z"/>
      <path class="cls-1" d="m14.8,9.32c.87-.07,1.74-.19,2.61-.17.3,0,.86.4.85.59-.03.57.49,1.37-.43,1.67-.61.2-1.25.3-1.89.39-.99.14-2,.19-2.98.37-.86.16-.98-.38-1.09-.98-.12-.63-.22-1.28.65-1.45.76-.15,1.53-.23,2.3-.34,0-.03,0-.05,0-.08Z"/>
      <path class="cls-1" d="m30.92,37.71c-1.04-7.24,4.77-15.8,13.48-16.48,7.77-.6,15.35,5.12,16.07,13.21.76,8.61-5.36,15.73-13.43,16.41-8.95.75-15.26-6.01-16.11-13.14Zm15.69,5.18c4.43-.66,6.97-4.65,5.69-8.95-.82-2.78-3.39-4.7-6.27-4.83-1.08-.05-2.2-.16-3.22-.48-1.39-.44-3.13-.15-4.11.93-1.12,1.23-1.26,2.85-.5,4.32.31.6.54,1.33.52,2-.09,4.31,3.63,7.65,7.89,7.01Zm9.96-.65c-.09-.73-1.01-1.45-1.74-1.36-.82.1-1.42.94-1.31,1.83.11.88.8,1.33,1.85,1.21.79-.09,1.31-.82,1.2-1.68Z"/>
      <path class="cls-1" d="m51.44,35.41c-.25-2.3-2.39-5.02-5.37-5.12-1.02-.03-1.18.11-1.07,1.13.17,1.54-.23,2.92-1.63,3.66-.78.42-1.79.52-2.69.53-.77,0-.86.26-.8.9.2,2.03,1.27,3.53,2.94,4.55,1.97,1.2,4.04,1.13,5.95-.13,1.96-1.28,2.91-3.14,2.67-5.53Z"/>
      <path class="cls-1" d="m51.44,35.41c.25,2.39-.71,4.24-2.67,5.53-1.92,1.26-3.98,1.33-5.95.13-1.68-1.02-2.74-2.52-2.94-4.55-.06-.64.03-.89.8-.9.91,0,1.92-.11,2.69-.53,1.39-.74,1.79-2.12,1.63-3.66-.11-1.02.05-1.17,1.07-1.13,2.99.1,5.13,2.81,5.37,5.12Z"/>
    </g>
  </g>
</svg>