<?xml version="1.0" encoding="UTF-8"?>
<svg id="_Слой_2" data-name="Слой 2" xmlns="http://www.w3.org/2000/svg" viewBox="0 0 77.4 199.22">
  <defs>
    <style>
      .cls-1 {
        fill: #fff;
      }
    </style>
  </defs>
  <g id="_Слой_1-2" data-name="Слой 1">
    <g id="_55h7Af" data-name="55h7Af">
      <g>
        <path class="cls-1" d="m22.03,79.24c-.2.11-.39.22-.59.34,1.85-4.43,4.26-8.66,6.26-13.05,1.79-3.95,2.32-8.16,2.65-12.43.05-.62.2-1.29.5-1.82.53-.93.13-1.8-.09-2.6-.41-1.47.19-2.75.45-4.1.16-.83.38-1.65.55-2.48.34-1.66.69-3.35,2.49-4.05.77-.3,1.66-.3,2.5-.44.36-.06.72-.14,1.07-.23.92-.23,1.46-.6,1.17-1.76-.15-.6.23-1.32.37-1.99.12-.56.06-.91-.61-1.15-2.78-1-4.25-3.08-4.27-5.98-.01-1.75.39-3.5.61-5.25.05-.4.12-.8.18-1.2,0,0-.02.02-.02.02.91-1.47,1.82-2.93,2.71-4.41.09-.15.12-.38.09-.56-.34-2.28.63-4.06,2.16-5.62.13-.13.42-.11.64-.15.01.25.13.63.02.72-1.23,1-1.37,2.34-1.3,3.77,0,.1-.04.2-.08.29q-.31.7.53.94c-1.62.67-1.3,2.12-1.4,3.3-.24,2.91-.37,5.84-.41,8.77-.02,1.75.57,2.91,1.76,4.22.23-3.44-.19-6.66-.85-9.98-.17.21-.24.31-.4.51.05-.92.09-1.73.13-2.54.11-.03.22-.05.33-.08.42.85.84,1.7,1.33,2.67,0,.33-.04.84,0,1.35.25,3.01.52,6.02.8,9.18.15-.18.47-.38.5-.62.46-3.65.51-7.27-.88-10.77-.11-.26-.15-.55-.22-.83.09-.07.19-.14.28-.2.47.5,1.12.92,1.37,1.52.65,1.56,1.19,3.15,2.45,4.35.19.18.36.43.43.69.52,1.67,1.85,2.55,3.24,3.38.17.1.34.22.5.33.02.02.03.06.2.41-1.06-.27-1.9-.49-2.71-.7-.21,1.08-.42,2.2-.65,3.4,1.21.35,2.53.5,3.91.12,1.1-.3,2.25-.48,3.32-.85.72-.25,1.1-.82.91-1.7-.12-.54-.02-1.13-.02-1.88-.81.86-1.68,1.47-1.1,2.69-1.03.12-1.56-.4-1.47-1.35-.64-.04-1.28-.08-1.92-.12l-.02-.29c.23-.1.46-.3.69-.29,1.26.04,1.68-.96,2.12-1.8,1.33-2.57,2.15-5.29,2.32-8.2.04-.75.25-1.49.38-2.24.16,0,.32.02.48.03,0,1.12.06,2.23-.02,3.34-.08,1.11-.3,2.21-.5,3.61.66-1.5,1.33-2.69,1.71-3.96.56-1.9-.55-3.33-1.54-4.84-1.75-2.67-3.31-5.46-4.95-8.21-.04-.07.01-.19.03-.36.17,0,.39-.07.47.01,1.02.95,2.45,1.44,3.08,2.85.57,1.27,1.24,2.5,1.88,3.74.18.35.4.68.59,1.02.11-.05.22-.11.32-.16l-2.22-4.64c.09-.08.18-.17.27-.25.36.23.85.39,1.06.72,1.4,2.23,2.88,4.43,4.03,6.8.45.94.29,2.29.08,3.4-.17.87,0,1.4.71,2.02,1.38-2.14,3.09-4.05,2.66-6.86-.06-.41.08-.86.13-1.29.02-.19.09-.42.01-.57-.94-2-1.83-4.02-2.9-5.95-.4-.73-1.26-1.2-1.89-1.81-.36-.35-.69-.73-1.03-1.1l.27-.35c.44.24.89.46,1.32.72,3.21,1.98,4.44,5.07,4.77,8.64,0,.1-.01.21.02.3,1.02,3.14-.21,5.75-1.98,8.2-.77,1.07-1.63,2.12-2.63,2.98-.85.72-1.39,1.47-1.65,2.56-.31,1.32-.82,2.59-1.25,3.89-.05.16-.16.35-.12.48.33.9.7,1.78,1.06,2.67l.19-.22c.27.11.7.16.78.35,1.04,2.63,3.1,3.97,5.71,4.64.48.12,1.05.02,1.47.23,1.21.58,2.36,1.27,3.53,1.93.11.06.21.19.25.31.34,1.05.91,2.1.95,3.16.12,3.12.19,6.27-.06,9.38-.18,2.25-.97,4.44-1.37,6.68-1.18,6.68-2.32,13.37-2.14,20.2.11,4.11.88,8.06,2.99,11.65,1.03,1.75,2.22,3.41,3.15,5.21.74,1.43,1.41,2.96,1.72,4.53.39,1.96.54,3.96,1.3,5.83.15.37.23.79.27,1.19.11,1.14-.6,1.66-1.66,1.24-.39-.15-.79-.26-1.3-.42.39,1.26.58,1.34,2.08,1.05-.17,1.14-.87,1.3-2.47.55-1.48,2.33-1.98,2.36-3.86.25-.22.58-.39,1.16-.65,1.7-.37.78-.92,1.39-1.89,1.29-.9-.09-1.37-.72-1.58-1.53-.25-.99-.42-2-.63-3-.07-.35-.16-.71-.33-1.05.1,1.05.25,2.09.27,3.14.04,1.4-.6,1.76-1.85,1.17-.27-.13-.61-.1-.99-.15.42,2.21.82,4.28,1.21,6.34.88,4.59.95,9.22.49,13.85-.09.89.03,1.47.76,2.06,6.05,4.87,8.14,11.45,8.05,18.94-.03,2.62-.18,5.24-.28,7.88.06-.14.11-.29.17-.45.11,0,.21,0,.32,0,0,1.48-.03,2.96.02,4.43.01.38.26.76.42,1.13.13.3.44.63.38.89-.49,2.44.88,4.51,1.32,6.76.04.18.16.41.31.49.73.38.62.93.43,1.58-.1.33-.1.73-.03,1.07.5,2.25,1.01,4.51,1.58,6.75.22.86.62,1.67.91,2.52.61,1.81-.6,4.14-2.41,4.69-.06.02-.18.01-.19.05-.44,1.21-1.48.77-2.26.71-1.11-.09-2.22-.85-3.28.22-.03.03-.94-.53-1.1-.94-.34-.92-.53-1.9-.64-2.88-.19-1.76-.27-3.53-.41-5.3-.02-.25-.06-.63-.22-.72-.88-.49-.92-1.33-.91-2.14.03-2.86.11-5.72.17-8.58.02-.82.09-1.63.08-2.45,0-.91.15-1.65,1.4-1.68-.77-1.1.19-1.43.61-1.85-.5-.56-1.07-1.04-1.41-1.65-.14-.24.23-.77.41-1.28-.64-1.05-1.45-2.19-2.07-3.43-3.02-5.99-4.8-12.38-5.79-18.98-.18-1.23-.79-2.12-1.35-3.13-1.48-2.68-2.96-5.36-4.22-8.15-2.65-5.87-5.15-11.8-7.71-17.71-.08-.19-.18-.36-.21-.42-.61.22-1.24.69-1.69.56-.46-.13-.71-.91-1.14-1.31-.43-.4-.97-.68-1.53-1.07-.1.65-.08,1.22-.29,1.69-.2.45-.62,1.11-.96,1.12-.45.01-1.14-.42-1.33-.84-.48-1.08-.78-2.24-1.06-3.39-.2-.82-.23-1.67-.36-2.66-.47.82-.8,1.59-1.31,2.21-.58.71-1.36.55-2.14-.3-.28.38-.52.81-.86,1.12-.59.55-1.21.49-1.81-.06-.3-.27-.72-.43-1-.72-.3-.31-.68-.69-.73-1.08-.08-.68.07-1.39.15-2.33-.56.96-.98,1.72-1.45,2.46-.31.48-.62,1.05-1.08,1.34-.53.33-1.3.67-1.82.51-.52-.16-.86-.93-1.27-1.43.08-.07.15-.14.23-.21-.38-.12-.76-.23-1.15-.36.59,2.73,1.25,5.44,1.74,8.18,1.29,7.2,1.88,14.46,1.65,21.78-.08,2.42.29,4.74.92,7.05.21.79.43,1.58.57,2.39.06.38-.06.78-.1,1.18-.14.02-.29.04-.43.06-.38-1.15-.77-2.29-1.15-3.44-.1,0-.21,0-.31,0-.22,2.31-.71,4.64-.6,6.94.28,6.13,1.24,12.2,2.39,18.23.05.27.12.54.14.81.06,1.1.21,2.03,1.66,2.17.58.06,1.1.63,1.63.96,1.26-.58,1.47-1.45,1.38-2.85-.28-4.62-.34-9.26-.35-13.89,0-4.33.16-8.65.24-12.98,0-.23-.05-.46-.07-.69-.08-.02-.17-.03-.25-.05-.28,1.17-.53,2.34-.85,3.5-.09.33-.39.59-.59.89-.11-.35-.34-.72-.3-1.04.12-.87.25-1.78.58-2.59,1.8-4.38,2.12-9.07,2.97-13.64,1.23-6.57,1.64-13.18.79-19.84-.05-.4.03-.81.05-1.21.13-.03.26-.05.38-.08.18.47.43.94.52,1.43.68,3.67.98,7.41.51,11.1-.81,6.25-1.92,12.46-2.9,18.68-.06.37-.12.74-.11,1.11.08,3.81.23,7.63.25,11.44.03,6.24-.03,12.48-.04,18.71,0,.26.11.52.12.79.02.42.14.94-.05,1.24-.48.76-.27,1.06.53,1.12.75.06,1,.54.99,1.18-.01,3.23-.05,6.47-.09,9.7-.03,2.21-.05,4.42-.16,6.62-.03.69-.33,1.36-.47,2.05-.06.26-.13.58-.04.79.33.76.02,1.21-.65,1.44-.8.28-1.63.47-2.44.7h-1.43c-.62-.16-1.23-.36-1.85-.46-.92-.15-1.37-.68-1.47-1.57-.19-1.6-.4-3.19-.52-4.79-.03-.44.23-.91.35-1.36.21-.8.41-1.61.6-2.37-.57-.11-1.19-.09-1.26-.27-.13-.35-.04-.85.11-1.23.35-.87,1.16-1.6.72-2.68-.01-.03,0-.07.02-.1,1.3-1.65.59-3.53.64-5.33.02-.7.19-1.4.3-2.1.02-.1.13-.25.1-.28-1.14-1.17.08-2.62-.49-3.94-.54-1.25-.63-2.71-.82-4.1-.57-4.15-1.13-8.3-1.59-12.46-.14-1.31,0-2.65.08-3.98.52-7.93.57-15.87.14-23.81-.36-6.59-1.68-13.04-2.93-19.49-.17-.89-.34-1.78-.54-2.82-.95,1.04-1.78,1.98-2.65,2.88-.47.48-.98.97-1.55,1.31-.32.19-.94.25-1.21.06-.26-.18-.41-.82-.3-1.15.38-1.12.91-2.19,1.48-3.51-1.12,1.06-2.07,1.97-3.05,2.85-.45.41-.93.86-1.49,1.05-.51.18-1.28.26-1.67,0-.31-.21-.26-1.01-.31-1.55-.02-.21.13-.44.23-.74-.65.44-1.19.9-1.81,1.18-.33.15-.91.09-1.19-.13-.23-.17-.32-.77-.22-1.08.33-.95.78-1.87,1.22-2.87-.68.21-1.31.45-1.95.6-.76.17-1.67.21-1.99-.57-.23-.56.03-1.34.13-2.01.04-.25.25-.47.48-.86-.77.21-1.38.43-2.01.55-1.6.29-2.04-.24-1.61-1.76.07-.24-.23-.8-.45-.87-1.7-.5-1.75-2.11-.71-3.14,1.79-1.77,3.62-3.51,5.58-5.08,2.96-2.35,6.1-4.44,8.71-7.23,1.58-1.69,3.28-3.31,5.17-4.63,3-2.1,6.19-3.95,9.34-5.85.65-.39,1.15-.66,1.18-1.54.02-.73.37-1.44.57-2.16.31-1.07.62-2.14.99-3.42-.43.32-.66.5-.95.72-.1-.19-.27-.39-.22-.45.83-1.24,1.69-2.46,2.75-3.98-.73-2.36-1.57-5.09-2.42-7.82-.08.01-.17.03-.25.04-.03.08-.09.16-.08.24.14,4.56-.93,8.86-2.81,12.97-1.3,2.83-2.48,6.45-4.59,8.79-.1.11-.22.23-.37.26-.26.04-.48-.23-.49-.49-.01-.26.12-.5.24-.73.08-.14.15-.27.23-.41l-1.22,3.71Zm25.43,35.31c1.12,2.59,2.21,5.12,3.3,7.65,2.23,5.19,4.49,10.37,6.68,15.58.4.94.83,1.69,1.74,2.27.64.41,1.09,1.19,1.49,1.88.13.22-.21.69-.29,1.05-.03.15.03.34.07.5.42,2,.77,4.02,1.26,6,1.38,5.5,3.34,10.8,6.03,15.8.39.72,1,1.32,1.66,2.17.1-.5.15-.67.16-.83.15-4.05.45-8.1.4-12.14-.03-2.18-.53-4.39-1.05-6.52-.97-3.96-3.66-6.91-6.23-9.97-.12.17-.22.34-.42.63-.03-.51-.07-.85-.06-1.19.34-7.52-.78-14.88-2.47-22.17-.28-1.21-1.11-2.29-1.69-3.43-.3.56-.28,1.02-.44,1.42-.13.34-.42.72-.73.83-.17.06-.6-.33-.79-.6-.32-.46-.54-.99-.88-1.65-.12.5-.12.84-.28,1.07-.22.3-.54.69-.86.74-.81.13-2.37-1.06-2.6-1.9-.18-.67-.28-1.36-.42-2.04-.46,1.14-.7,2.29-.99,3.43-.4,1.59-.97,1.9-2.57,1.43Zm14.15-72.05c.22.46.35.77.52,1.06.15.27.35.5.49.77,1.46,2.81,2.41,5.64.48,8.66-.25.4-.14,1.05-.11,1.59.02.33.33.66.3.96-.73,7.28-1.48,14.56-2.26,21.84-.17,1.56.04,2.94,1.09,4.19.61.72,1.02,1.61,1.51,2.42.8,1.32,1.6,2.63,2.39,3.95-.01-1.1-.2-2.14-.28-3.19-.4-5.2.17-10.33.94-15.47.73-4.84,1.45-9.69,2.01-14.55.17-1.52-.13-3.11-.34-4.64-.14-1-.52-1.96-.75-2.95-.24-1.06-.05-2.28-1.16-3.01-.12-.08-.11-.32-.22-.45-.18-.22-.38-.55-.61-.59-1.27-.23-2.55-.39-4.01-.59Zm-.85,17.53c-.06.08-.12.12-.14.17-1.59,3.91-3.2,7.81-4.74,11.73-.13.32,0,.87.21,1.17.98,1.39,2.03,2.73,3.04,4.1.15.2.21.47.3.71.07-.1.15-.2.22-.3.37-5.84.74-11.68,1.11-17.59Zm-28.61-11.74c.08.05.17.11.25.16.11-.16.21-.35.35-.48,2.11-2.07,4.25-4.12,6.34-6.21.44-.44.77-1.01,1.22-1.61-1.69,0-3.12-.05-4.54.01-1.53.07-2.27.75-2.56,2.28-.31,1.6-.56,3.22-.84,4.82-.06.34-.14.69-.22,1.03ZM6.37,103.22c1.9-.47,3.63-1.13,4.81-2.68,1.34-1.76,2.63-3.55,3.95-5.33.55-.74,1.12-1.46,1.69-2.19-1.04.61-1.92,1.35-2.86,2.01-.48.34-1.22.41-1.58.82-1.89,2.14-3.71,4.34-5.54,6.53-.2.24-.32.55-.48.83Zm18.2-16.71c-1.21.93-2.44,1.83-3.61,2.81-.54.45-.96,1.05-1.39,1.62-1.1,1.47-2.19,2.95-3.27,4.43-.79,1.08-1.56,2.17-2.49,3.47,3.31-1.64,7.94-6.89,10.76-12.32Zm13.18-68.1c-1.49,3.34-2.58,6.77-1.74,10.51.25,1.13.92,2.05,2.01,2.73-1.65-4.46-.73-8.84-.27-13.24Zm-16.56,78.17c-.96,1.31-1.9,2.64-2.89,3.92-.48.61-.77,1.67-1.95,1.07-.06-.03-.25.1-.31.2-1.13,1.79-2.25,3.58-3.37,5.37.12.08.23.16.35.24,2.83-3.52,7-5.99,8.18-10.81Zm4.35-17.84c-.08-.06-.16-.13-.23-.19-3.64,2.61-7.44,5.05-10.18,8.76.49-.18.99-.39,1.39-.72,2.83-2.28,5.65-4.57,8.45-6.88.27-.22.39-.64.58-.97Zm19.66,26c.07,0,.15-.02.22-.03.01-.12.02-.25.03-.37.27-4.14.52-8.28.81-12.42.19-2.7.02-4.88-.58-6.42-.05.27-.11.46-.12.66-.2,5.61-.4,11.22-.57,16.83-.02.58.14,1.16.21,1.74Zm-14.51-6.27c-1.84,3.57-3.67,7.14-4.62,11.08,2.15-3.44,4.32-6.87,4.62-11.08Zm-5.71-.94c-2.39,1.76-5.34,6.05-5.6,8.17,2.28-2.45,4.48-4.93,5.6-8.17Zm35.99,15.72c-1.08-3.33-2.15-6.66-3.25-10.04-.53,3.91.94,7.11,3.25,10.04Zm-17.93-47.98c1.27.27,1.85.02,1.55-.56-.71-1.34-.19-2.66-.18-3.99.01-.98,0-1.95,0-2.93-.17,0-.35-.02-.52-.03-.28,2.5-.57,5.01-.85,7.51Zm5.23,47.71c.1,0,.21-.01.31-.02,0-.75.08-1.5-.02-2.23-.25-1.87-1.45-3.55-1.17-5.55.02-.11-.06-.23-.09-.35-.04,2.77-.97,5.67.97,8.15Zm-17.56,77.92c-.21-.04-.41-.08-.62-.13-.34,1.39-.69,2.79-1.02,4.18-.11.48-.19.96-.3,1.51.39.03.81.07,1.17.1.67-.95.39-1.84.28-2.8-.11-.92.31-1.91.49-2.87Zm34.42-79.41c.24,1.18.43,2.3.71,3.41.07.27.37.57.63.65.14.04.51-.31.61-.55.3-.7.75-1.37-.18-2.1-.54-.43-.58-1.46-1.78-1.41Zm-25.92-9.83c-.65,3.58-.45,7.13.55,10.65.14-.89.32-1.83.1-2.67-.68-2.64-.87-5.29-.65-7.98Zm10.56-46.14c-1.08,3.35-2.15,6.7-3.23,10.05.14.04.27.08.41.12,1.14-3.33,2.84-6.49,2.82-10.17Zm17.46,124.44c0,.81-.02,1.52.01,2.23,0,.2.12.54.24.57.74.2.77.78.8,1.37.07,1.22.11,2.44.2,3.66.1,1.27.24,2.54.37,3.82.08,0,.16-.01.25-.02,0-1.49.05-2.99-.01-4.47-.07-1.52-.24-3.03-.37-4.47-2.03-.19-.91-1.78-1.5-2.69Zm-36.32,6.93l-.33-.12c-2.01,2.5-3.38,7.03-2.6,8.87-.24-2.54,1.09-4.55,2.15-6.66.33-.66.53-1.39.78-2.09Zm2.91-9.33c-1.35,1.85-2.54,3.48-3.56,4.87.17.57.26.89.33,1.16,1.28-1.75,3.02-3.29,3.23-6.03Zm19.3-68.96c-.52-2.63-1.05-5.26-1.57-7.89-.73,2.9.47,5.41,1.57,7.89Zm-17.92-19.69c-.11-.05-.23-.11-.34-.16-.84,2.31-2.42,4.37-2.03,7.1.79-2.31,1.58-4.63,2.37-6.94Zm-21.27,12.41c-2.53.94-3.65,2.76-4.22,5.04,1.35-1.61,2.7-3.22,4.22-5.04Zm19.41-34.95c-.31,1.14-.55,2.24-.92,3.29-.37,1.05-.89,2.05-1.36,3.1.47-.18.94-.37,1.21-.47.11-.7.11-1.27.3-1.76.42-1.07.95-2.1,1.42-3.15.14-.31.24-.65.41-1.1-.49.04-.78.06-1.04.09Zm35.05,106.27c.54.4.97.61,1.23.95.2.27.15.73.29,1.06.09.2.32.42.52.46.24.04.52-.1.78-.16-1.8-1.24-1.63-2.75-1.92-4.1h-1.41c.19.67.39,1.36.51,1.78Zm-24.44-64.53c-.84,1.83-.53,3.39.21,4.98,1.18-1.45-.09-2.47-.72-3.84.64.14,1.02.22,1.39.31.07-.06.15-.12.22-.18-.37-.42-.74-.85-1.1-1.27Zm.35-73.94c.93-1.52,1.03-3.76,0-5.04.05,1.21.11,2.41.16,3.72q-1.16.86-.16,1.32Zm-6.06,21.88c-.14,0-.27,0-.41,0-.8,2.1.52,4.03.51,6.07.09,0,.18-.01.27-.02-.12-2.02-.25-4.03-.37-6.05Zm-11.43,45.99c-1.15,1.43-2.24,2.89-2.03,4.89.68-1.63,1.35-3.26,2.03-4.89Zm-13.06-13.34c-.26-.19-.55-.46-.59-.43-1.03.87-2.04,1.78-3.05,2.68.07.08.14.16.21.24,1.09-.79,2.18-1.58,3.44-2.49Zm-6.69,6.37c2.06-.09,3.07-1.66,4.33-2.87-1.44.96-2.89,1.91-4.33,2.87Zm.61,2.72c-1.18.54-2.36,1.07-3.54,1.61,1.79.74,2.57-.68,3.54-1.61Zm61.9,14.29c-.06.05-.12.09-.19.14.2.41.35.86.6,1.22.23.33.59.58.89.86.27-.3.55-.6.78-.85-.78-.51-1.43-.94-2.09-1.37Zm-28.32-11.22c.1,0,.19,0,.29,0,.14-1.75.28-3.5.41-5.25-.15,0-.3-.02-.46-.03-.08,1.76-.16,3.52-.24,5.28Zm-6.85-25.55c-1.26-.32-1.8.61-2.51,1.23.75.89,1.11.54,2.51-1.23Zm2.13-22.28c.16.07.32.13.47.2l1.37-3.16-.4-.18c-.41,1.07-1.37,1.91-1.44,3.13Zm5.01-18.52c-.14-.02-.27-.04-.41-.05-.3.94-.6,1.87-.95,2.96.49-.16.79-.27,1.05-.35.11-.92.21-1.74.3-2.55Zm27.31,65.57c-.09.05-.17.11-.26.16.68,1.14,1.36,2.29,2.03,3.43.03-1.57-.88-2.58-1.77-3.59ZM3.78,95.05c-.76.85-1.52,1.7-2.42,2.71.92.06,2.34-1.57,2.42-2.71Zm44.19,2.95s-.1,0-.15,0c0,1.11-.03,2.23,0,3.34.04,1.08.15,2.15.23,3.23-.03,0-.06,0-.1,0v-6.57Zm-22.84-14.39l.2.24c1.15-.93,2.29-1.87,3.44-2.8-.07-.08-.13-.16-.2-.23-1.15.93-2.29,1.86-3.44,2.8ZM59.47,24.83c-.13-.54-.22-.89-.31-1.25-.11-.02-.22-.04-.33-.07-.21.73-.42,1.45-.63,2.18.09.04.19.08.28.13.35-.35.7-.7.99-.99Zm-23.56,37.97c.11-.04.23-.08.34-.12-.32-1.11-.64-2.22-.96-3.32-.12.04-.24.07-.37.11.33,1.11.66,2.22.98,3.34Zm20.12,44.87c-.09.01-.19.02-.28.03,0,.9-.7,1.86.4,2.8-.05-1.05-.08-1.94-.12-2.83Zm5.59-7.06c-.09.04-.19.08-.28.12.58,1.34,1.16,2.68,1.73,4.02.07-.03.15-.06.22-.09-.56-1.35-1.12-2.7-1.67-4.05Zm-10.3-11.97h-.13c.11,1.23.22,2.44.33,3.65.09,0,.19-.02.28-.03-.07-.61-.12-1.21-.2-1.82-.08-.6-.19-1.2-.28-1.8Zm19.43,96.16c.41-.97.75-1.79,1.16-2.77-1.12.69-1.59,1.45-1.16,2.77Zm-37.65-77.63c-.08-.02-.17-.04-.25-.06-.24.82-.98,1.51-.39,2.54.21-.83.42-1.65.64-2.48Z"/>
        <path class="cls-1" d="m34.93,7.62c-.41.57-.87,1.12-1.2,1.73-.24.43-.31.95-.48,1.5-.42-1.12-.25-2.59.49-3.83.67-1.14,1.54-2.1,2.85-2.51,1.11-.35,1.6-.12,2.11.93.16-.05.31-.12.48-.14,2.35-.34,4.06-1.43,5.42-3.5,1.43-2.17,3.01-2.23,5.31-.97.73.4,1.52.68,2.39,1.06-.27.29-.44.47-.65.68.11.02.19.04.27.06.23.03.61,0,.66.11.57,1.26,1.77.91,2.73,1.08,1.05.18,1.96.48,2.55,1.71-.8-.06-1.45-.08-2.1-.16-3.75-.44-7.5-.33-11.21.27-3.09.5-6.23.94-9.01,2.57-.07.02-.13.03-.2.05-.61.1-.55-.26-.44-.65.95-.65,1.9-1.31,2.89-1.99-1.15-.18-2.47.78-2.87,2.02Zm14.05-5.68c-1.49-.81-3.25.02-4.43,2.12,1.26-.11,2.45-.22,3.81-.33-1.01-1.07,0-1.3.63-1.79Zm1.93,1.7c-.98-.95-.99-.95-1.96,0h1.96Z"/>
        <path class="cls-1" d="m48.78,9.88c-1.34-.54-2.78.31-3.47,1.81-1.08,2.35-1.56,4.85-1.86,7.39-.08.67-.18,1.35-.3,2.3-.9-1.75-.49-3.37-.75-4.99-.3.85-.54,1.72-.91,2.53-.25.56-.29,1.47-1.25,1.24-.09-.02-.05-1.09.13-1.6.41-1.19.93-2.33,1.45-3.59-1.42-.69-1.05-1.79-.59-2.87.29-.71.64-1.39.96-2.08.11.02.22.03.33.05-.04.37-.03.76-.15,1.1-.21.61-.57,1.17-.74,1.79-.11.38.02.82.04,1.23.15.02.29.03.44.05.29-.77.59-1.54.88-2.32.35-.92.64-1.87,1.06-2.76.18-.39.61-.66.92-.98.32.31.64.62.96.94.07.07.11.16.03.04.95-.1,1.77-.2,2.59-.22.05,0,.13.55.21.95Z"/>
        <path class="cls-1" d="m35.34,8.25c.07-.02.13-.03.2-.05.12.2.38.53.32.6-1.92,2.39-1.33,5.17-1.2,7.86.07,1.48.38,2.95.59,4.42,0,0,.02-.02.02-.02-.29-.24-.65-.43-.86-.72-1.17-1.72-1.12-3.72-1.19-5.68-.08-2.38.17-4.68,2.11-6.4Z"/>
      </g>
    </g>
  </g>
</svg>