<?xml version="1.0" encoding="UTF-8"?>
<svg id="_Слой_2" data-name="Слой 2" xmlns="http://www.w3.org/2000/svg" viewBox="0 0 80.61 64.38">
  <defs>
    <style>
      .cls-1 {
        fill: #fff;
      }
    </style>
  </defs>
  <g id="_Слой_1-2" data-name="Слой 1">
    <g>
      <path d="m63.4,17.18c3.77.11,7.21.59,10.27,2.65,1.53,1.03,2.28,2.4,2.03,4.25-.13.94.2,1.39,1.05,1.93,1.2.76,2.25,1.85,3.16,2.97.69.85,1.07,2.18.15,2.96-.65.55-1.87.53-2.83.54-.59,0-1.18-.43-1.92-.72-.06.39-.11.75-.18,1.1-1.02,5.44-1.74,10.96-3.16,16.3-.82,3.05-2.59,5.92-4.3,8.64-1.6,2.54-4.14,4.01-7.08,4.96-6.63,2.13-13.37,1.74-20.13,1.19-8.07-.66-15.93-2.27-23.4-5.48-.94-.41-1.86-.89-2.77-1.37-2.22-1.16-3.65-2.91-4.06-5.44-.49-3-1.04-5.98-1.53-8.98-.85-5.23-1.66-10.46-2.49-15.69-.04-.23-.14-.44-.25-.81-.58.73-1.03,1.35-1.54,1.92-1.1,1.24-2.31,1.37-3.49.43-1.04-.83-1.3-2.5-.27-3.54.94-.95,2.14-1.7,3.34-2.33.9-.48,1.34-.9,1.14-2-.3-1.69-.04-3.39,1.05-4.75.58-.72,1.44-1.44,2.3-1.66,3.28-.83,6.63-1.38,10.04-1.04.88.09,1.31-.19,1.73-.93,1.75-3.09,3.74-6,6.63-8.16,6.99-5.22,17.06-5.49,24.93-.69,5.41,3.3,9.42,7.78,11.59,13.76Zm-6.75,2.6c-1.37,2.59-2.56,5.11-4,7.48-2.14,3.54-5.08,6.18-9.15,7.44-4.87,1.51-9.39-.26-11.41-4.65-.92-2-1.67-4.08-2.46-6.13-.21-.54-.25-1.15-.39-1.72-.41-1.7-.83-3.41-1.32-5.44-.33,1.09-.49,1.81-.75,2.49-1.01,2.67-3.25,3.69-5.91,2.7-.68-.26-1.3-.69-1.97-.97-1.07-.45-1.27-1.24-1.08-2.28.21-1.1.36-2.2.56-3.38-.31-.02-.6-.09-.87-.06-2.62.31-5.23.62-7.84.96-1.88.25-2.66,1.07-2.73,2.97-.04.92.07,1.86.22,2.78,1.13,7.07,2.27,14.14,3.47,21.19.08.49.62,1.18,1.07,1.29,4.24,1.04,8.46,2.3,12.77,2.85,6.9.87,13.87,1.27,20.81,1.81,7.11.55,14.22.4,21.3-.41,3.26-.37,2.8.33,3.75-3.18,1.92-7.06,2.37-14.31,2.8-21.57.08-1.37-.67-2.13-1.68-2.68-2.35-1.29-4.96-1.61-7.64-1.99.16,1.11.35,2.02.42,2.94.22,2.88-1.33,4.91-4.15,5.53-1.26.28-2.16-.1-2.5-1.38-.3-1.13-.52-2.29-.75-3.44-.2-1.03-.37-2.07-.56-3.12Zm12.33,30.88c-19.57,1.5-38.65.41-57.45-4.29,1.01,7.22,1.06,7.79,7.16,10.35,7.61,3.19,15.6,4.56,23.77,5.15,5.99.43,11.91.54,17.77-1.33,4.98-1.59,6.87-5.56,8.74-9.88ZM29.8,14.22c.06.49.09.78.14,1.07.8,4.76,2.31,9.31,4.21,13.73,1.23,2.87,3.95,4.36,7.05,3.86,2.3-.37,4.37-1.24,6.21-2.8,2.56-2.17,4.04-5.03,5.53-7.9.67-1.28,1.08-2.69,1.72-4.31-8.35-1.69-16.41-3.27-24.85-3.65Zm30.04,11.42c2.1-.33,3.03-1.39,2.74-3.34-.9-6.1-3.9-10.98-8.66-14.89-5.82-4.78-12.14-6.3-19.63-4.52-6.88,1.64-13.1,9.69-13.75,15.75-.04.4.28,1.07.62,1.26,1.93,1.07,3.61.38,4.26-1.72.23-.74.26-1.55.47-2.3.34-1.16.57-2.41,1.18-3.43,3.69-6.19,11.37-9.28,18.34-7.33,7.33,2.04,12.28,6.39,13.3,14.34.16,1.26.38,2.52.6,3.78.14.81.35,1.61.52,2.4Zm-3.84-9.25c-2.32-5.79-6.83-8.31-12.31-9.6-5.48-1.29-11.97,2.27-13.54,5.21,8.7.53,17.21,1.95,25.85,4.39Zm20.01,11c-.13.12-.27.24-.4.36-.16,1.96.96,3.08,3.41,2.87-1.15-1.23-2.08-2.23-3.01-3.23ZM4.46,24.9c-.09-.1-.17-.2-.26-.3-.59.39-1.24.73-1.75,1.21-.24.23-.21.74-.3,1.13.36-.1.83-.1,1.06-.34.48-.5.84-1.13,1.25-1.7Z"/>
      <path class="cls-1" d="m56.66,19.79c.19,1.05.35,2.09.56,3.12.23,1.15.45,2.31.75,3.44.34,1.28,1.24,1.66,2.5,1.38,2.82-.62,4.37-2.64,4.15-5.53-.07-.92-.26-1.83-.42-2.94,2.69.38,5.29.7,7.64,1.99,1.01.56,1.76,1.31,1.68,2.68-.43,7.26-.88,14.5-2.8,21.57-.95,3.51-.5,2.81-3.75,3.18-7.08.82-14.19.97-21.3.41-6.94-.54-13.91-.94-20.81-1.81-4.31-.54-8.53-1.81-12.77-2.85-.45-.11-.99-.8-1.07-1.29-1.2-7.06-2.34-14.12-3.47-21.19-.15-.92-.25-1.86-.22-2.78.07-1.9.85-2.72,2.73-2.97,2.61-.35,5.23-.65,7.84-.96.27-.03.56.03.87.06-.19,1.18-.35,2.29-.56,3.38-.19,1.04,0,1.83,1.08,2.28.67.28,1.29.72,1.97.97,2.67,1,4.9-.03,5.91-2.7.26-.68.43-1.4.75-2.49.5,2.04.91,3.74,1.32,5.44.14.57.18,1.17.39,1.72.79,2.06,1.54,4.13,2.46,6.13,2.02,4.4,6.53,6.16,11.41,4.65,4.07-1.26,7-3.89,9.15-7.44,1.43-2.37,2.62-4.89,4-7.48Z"/>
      <path class="cls-1" d="m68.99,50.67c-1.87,4.32-3.76,8.3-8.74,9.88-5.86,1.86-11.78,1.75-17.77,1.33-8.17-.58-16.17-1.96-23.77-5.15-6.1-2.56-6.15-3.13-7.16-10.35,18.8,4.69,37.88,5.79,57.45,4.29Zm-18.36,2.55c1.77.91,3.02.75,3.6-.45-1.6-.7-3.01-.52-3.6.45Zm-30.5-3.73c-.7.31-1.26.56-1.81.81.46.34.89.9,1.39.98.51.07,1.08-.34,1.63-.53-.36-.37-.71-.73-1.21-1.25Zm27.6,3.14c-.97,0-1.94-.04-2.91,0-.18.01-.42.36-.49.6-.03.11.26.43.44.47,1.08.26,2.18.51,2.95-1.07Zm-7.99-.88c-.61.32-1.08.57-1.54.81.34.28.67.76,1.03.78.49.02,1-.31,1.5-.49-.29-.32-.57-.64-.99-1.1Zm-25.51-1.55c.59-.31.98-.51,1.36-.71-.34-.39-.61-.93-1.04-1.12-.27-.12-.76.29-1.16.47.25.4.49.8.84,1.36Zm9.9.56c-.05.21-.1.43-.15.64.68.2,1.36.49,2.06.57.26.03.58-.38.88-.6-.27-.23-.51-.61-.81-.65-.65-.08-1.32,0-1.98.03Zm34.04,1.79c0,.14-.01.29-.02.43,1.24.81,2.31.71,3.19-.63-1.22.08-2.2.14-3.17.2Zm-27.03-.82c-.01.21-.03.41-.04.62.88.67,1.79.7,2.73.11.01-.19.02-.37.03-.56-.91-.06-1.82-.12-2.73-.18Z"/>
      <path class="cls-1" d="m29.8,14.22c8.44.39,16.5,1.96,24.85,3.65-.63,1.62-1.05,3.03-1.72,4.31-1.49,2.86-2.97,5.73-5.53,7.9-1.84,1.56-3.91,2.43-6.21,2.8-3.1.5-5.82-.99-7.05-3.86-1.9-4.42-3.41-8.97-4.21-13.73-.05-.29-.08-.58-.14-1.07Zm13.18,13.83c.23-1.49-.86-2.87-2.44-3.1-1.34-.19-2.32.47-2.48,1.66-.3,2.16.23,3.37,1.56,3.6,1.5.26,3.15-.8,3.36-2.16Z"/>
      <path class="cls-1" d="m59.84,25.64c-.17-.79-.37-1.59-.52-2.4-.22-1.26-.44-2.51-.6-3.78-1.02-7.95-5.97-12.29-13.3-14.34-6.97-1.94-14.65,1.14-18.34,7.33-.61,1.02-.84,2.26-1.18,3.43-.22.75-.24,1.56-.47,2.3-.65,2.1-2.33,2.8-4.26,1.72-.35-.19-.67-.85-.62-1.26.64-6.06,6.87-14.11,13.75-15.75,7.49-1.79,13.81-.27,19.63,4.52,4.76,3.91,7.76,8.79,8.66,14.89.29,1.95-.64,3.01-2.74,3.34Z"/>
      <path class="cls-1" d="m76.01,27.39c.93,1,1.86,2,3.01,3.23-2.45.22-3.57-.91-3.41-2.87.13-.12.27-.24.4-.36Z"/>
      <path class="cls-1" d="m4.46,24.9c-.41.57-.76,1.2-1.25,1.7-.23.23-.7.23-1.06.34.09-.38.06-.9.3-1.13.51-.48,1.16-.82,1.75-1.21.09.1.17.2.26.3Z"/>
      <path d="m50.63,53.22c.59-.97,2.01-1.15,3.6-.45-.58,1.2-1.83,1.36-3.6.45Z"/>
      <path d="m20.13,49.49c.5.51.85.88,1.21,1.25-.55.2-1.12.61-1.63.53-.5-.07-.93-.63-1.39-.98.56-.25,1.11-.49,1.81-.81Z"/>
      <path d="m47.72,52.63c-.77,1.58-1.87,1.33-2.95,1.07-.19-.04-.47-.36-.44-.47.06-.23.3-.59.49-.6.97-.05,1.94-.01,2.91,0Z"/>
      <path d="m39.73,51.75c.41.46.7.78.99,1.1-.5.18-1.01.51-1.5.49-.35-.02-.68-.5-1.03-.78.46-.25.93-.49,1.54-.81Z"/>
      <path d="m14.23,50.2c-.35-.56-.59-.96-.84-1.36.39-.17.89-.58,1.16-.47.43.19.7.73,1.04,1.12-.38.2-.76.4-1.36.71Z"/>
      <path d="m24.13,50.76c.66-.02,1.33-.11,1.98-.03.29.04.54.42.81.65-.29.21-.61.63-.88.6-.7-.09-1.37-.37-2.06-.57.05-.21.1-.43.15-.64Z"/>
      <path d="m58.17,52.55c.97-.06,1.95-.13,3.17-.2-.88,1.35-1.95,1.45-3.19.63,0-.14.01-.29.02-.43Z"/>
      <path d="m31.14,51.73c.91.06,1.82.12,2.73.18-.01.19-.02.37-.03.56-.94.59-1.85.56-2.73-.11.01-.21.03-.41.04-.62Z"/>
      <path d="m42.98,28.05c-.21,1.36-1.86,2.42-3.36,2.16-1.33-.23-1.86-1.44-1.56-3.6.16-1.19,1.15-1.85,2.48-1.66,1.59.22,2.68,1.61,2.44,3.1Z"/>
    </g>
  </g>
</svg>