<?xml version="1.0" encoding="utf-8"?>
<!-- Generator: Adobe Illustrator 27.3.1, SVG Export Plug-In . SVG Version: 6.00 Build 0)  -->
<svg version="1.1" id="Слой_1" xmlns="http://www.w3.org/2000/svg" xmlns:xlink="http://www.w3.org/1999/xlink" x="0px" y="0px"
	 viewBox="0 0 55 55" style="enable-background:new 0 0 55 55;" xml:space="preserve">
<style type="text/css">
	.st0{fill:#FFFFFF;}
</style>
<path d="M27.5,0L27.5,0C42.7,0,55,12.3,55,27.5l0,0C55,42.7,42.7,55,27.5,55l0,0C12.3,55,0,42.7,0,27.5l0,0C0,12.3,12.3,0,27.5,0z"
	/>
<path class="st0" d="M19.8,18.5c0.7,0.7,0.8,1.3,0.3,2.2c-0.1,0.1-0.1,0.3-0.1,0.4c0.6-1,1-2.1,1.2-3.3c0-0.1,0-0.2,0-0.3
	c0-0.1,0-0.1,0.1-0.2c0,0,0.2,0,0.2,0c0,0.1,0,0.1,0,0.2c-0.2,0.5-0.3,1-0.5,1.5c0,0,0.1,0,0.1,0c0.4-0.6,0.8-1.2,1.2-1.8
	c0-0.1,0.1-0.1,0.2-0.1c0.1,0,0.1,0.1,0.1,0.1c0,0.1,0,0.1-0.1,0.2c-0.2,0.2-0.4,0.3-0.6,0.5c0.4,0.2,0.6,0,0.8-0.2
	c0.1,0,0.1-0.1,0.2-0.1c0,0,0.1,0.1,0,0.1C23,18,22.9,18,22.8,18.1c-0.3,0.1-0.6,0.2-0.9,0.3c0,0,0-0.1,0-0.1
	c-0.2,0.2-0.3,0.5-0.5,0.7c0.4,0,0.7,0,1.1,0c-0.2,0.7-0.6,1.2-1.7,1.1c-0.6,1-1,2.1-1.2,3.3c0.1-0.1,0.1-0.2,0.2-0.3
	c0.5-1,1.1-1.8,2-2.5c0.1-0.1,0.1-0.2,0.2-0.3c0,0,0.2-0.1,0.2-0.1c0.1,0,0.1,0.1,0.1,0.2c0,0.1-0.1,0.1-0.1,0.2
	c-0.2,0.1-0.4,0.2-0.6,0.3c-0.3,0.3-0.6,0.6-0.8,0.9c0.3-0.2,0.6-0.4,0.9-0.5c0.1,0,0.2,0,0.2,0c0,0,0.1,0.1,0,0.2
	c0,0-0.1,0.1-0.1,0.1c-0.3,0.1-0.5,0.1-0.8,0.3c-0.5,0.3-1,0.8-1.1,1.3c0.4-0.3,0.8-0.5,1.2-0.8c0,0,0.1,0,0.1,0
	c0,0,0.1,0.1,0.1,0.1c0,0-0.1,0.1-0.1,0.1c-0.7,0.2-1.1,0.6-1.5,1.1c-0.3,0.5-0.5,1.1-0.5,1.7c0.1-0.1,0.1-0.2,0.1-0.3
	c0.2-0.6,0.6-1,1.1-1.3c0.1-0.1,0.3-0.3,0.4-0.4c0.4-0.8,1.1-1,1.8-0.5c0.1,0.1,0.1,0.2,0.1,0.3c-0.3,0.8-1,1.1-1.7,0.6
	c-0.2-0.1-0.3-0.1-0.4,0c-0.9,0.6-1.3,1.4-1.3,2.5c0.2-0.3,0.4-0.6,0.5-0.9c0.2-0.5,0.6-0.7,1.2-0.6c-0.1,0.5-0.3,0.9-0.7,0.9
	c-0.6,0.1-0.8,0.6-1,1c-0.1,0.3,0,0.7,0.1,1c0.1-0.5,0.3-1,0.4-1.5c0-0.1,0.1-0.1,0.2-0.1c0,0,0.1,0,0.2,0.1c0,0,0,0.2,0,0.2
	c-0.5,0.4-0.5,0.9-0.6,1.4c0,0.1,0,0.3,0,0.5c0.1-0.2,0.1-0.3,0.2-0.5c0.3-0.8,0.7-1.4,1.4-1.9c0.2-0.2,0.5-0.3,0.7-0.3
	c0.2-0.1,0.5,0,0.5,0.3c0.1,0.2,0,0.5-0.3,0.5c-0.2,0.1-0.5,0.1-0.8,0c-0.3-0.1-0.5-0.1-0.8,0.2c-0.4,0.5-0.7,1-0.8,1.7
	c0.5-0.5,0.9-0.9,1.3-1.4c0,0,0.1-0.1,0.2-0.1c0,0,0.1,0.1,0.1,0.1c0,0.1,0,0.1-0.1,0.2c-0.6,0.3-0.9,0.8-1.3,1.3
	c0,0.1-0.1,0.1-0.1,0.3c0.7-0.4,1.4-0.8,2-1.2c0.7-0.4,1.4-0.5,2.2-0.3c-0.1,0.1-0.2,0.2-0.3,0.3c-0.6,0.5-1.3,0.7-2,0.5
	c-0.3,0-0.5,0-0.7,0.1c-0.3,0.2-0.7,0.4-1,0.7c2.5,0,5.1,0,7.6,0c-0.1-0.4-0.3-0.8-0.4-1.2c-1.4-3.9-2.8-7.8-4.2-11.6
	c-0.1-0.2-0.1-0.4,0-0.6c0.8-2,1.5-3.9,2.3-5.9C25.3,9.1,25.4,9,25.6,9c1.4,0,2.8,0,4.2,0c0.3,0,0.4,0.1,0.5,0.3
	c3.7,9.6,7.4,19.1,11.1,28.7c0.4,1,0.8,2,1.7,2.6c0.2,0.2,0.5,0.3,0.8,0.4c0.2,0.1,0.3,0.2,0.3,0.4c0,0.2,0,0.4,0,0.5
	c-5.4,0-10.9,0-16.3,0c0-0.3,0-0.5,0-0.8c0.5-0.1,1-0.1,1.6-0.2c1.4-0.2,1.9-0.8,1.6-2.2c-0.3-1-0.6-2-1-3c-0.7-2-1.4-3.9-2.1-5.9
	c-0.1-0.3-0.2-0.3-0.5-0.3c-2.9,0-5.8,0-8.7,0c-0.3,0-0.4,0.1-0.5,0.3c-0.6,1.8-1.3,3.6-1.8,5.4c-0.3,1-0.5,2.1-0.3,3.2
	c0.1,1.1,0.7,1.9,1.8,2.2c0.7,0.2,1.4,0.3,2.1,0.4c0.3,0,0.4,0.1,0.4,0.4c0,0.2,0,0.3,0,0.5c-3.2,0-6.5,0-9.7,0c0-0.3,0-0.5,0-0.9
	c1.5-0.4,2.4-1.5,3-2.8c0.8-1.6,1.5-3.3,2.2-5c0.6-1.4,1.1-2.9,1.7-4.4c0.1-0.3,0.3-0.5,0.6-0.4c0.3,0,0.6,0,0.9,0c0,0,0-0.1,0-0.1
	c-0.1,0-0.2,0-0.3-0.1c-0.1,0-0.2-0.1-0.2-0.1c0,0,0-0.1,0-0.1c0.2,0,0.3,0.1,0.5,0.1c0,0,0,0,0-0.1c-0.2-0.1-0.3-0.2-0.5-0.3
	c-0.1,0-0.1-0.1-0.1-0.2c0.1,0,0.1,0,0.2,0c0.2,0.1,0.3,0.2,0.5,0.4c-0.1-0.3-0.1-0.5-0.2-0.7c0-0.1-0.2-0.1-0.4-0.1
	c-0.2,0-0.4,0-0.6-0.1c-0.3-0.1-0.4-0.5-0.2-0.7c0.1-0.2,0.5-0.3,0.7-0.1c0.1,0.1,0.2,0.2,0.4,0.3c0-0.3-0.1-0.5-0.4-0.7
	c-0.8-0.4-1.1-1.2-0.8-2.1c0.3,0.2,0.6,0.5,1,0.7c-0.1-0.4-0.1-0.9-0.2-1.3c-0.2-0.9-0.1-1.7,0.5-2.4c0.3,0.7,0.4,1.5,0,2.1
	c-0.4,0.6-0.3,1.2-0.2,1.8c0,0.2,0.1,0.5,0.1,0.7c0.2-1,0.4-2.1,0.6-3.1c0.1-0.5,0.2-1,0.3-1.5c0-0.2,0-0.4-0.2-0.6
	C19.2,19.9,19.2,19.1,19.8,18.5z"/>
</svg>
