<?xml version="1.0" encoding="UTF-8"?>
<svg id="_Слой_2" data-name="Слой 2" xmlns="http://www.w3.org/2000/svg" viewBox="0 0 55 55">
  <defs>
    <style>
      .cls-1 {
        fill: #fff;
      }
    </style>
  </defs>
  <g id="_Слой_1-2" data-name="Слой 1">
    <path class="cls-1" d="m27.5,0h0c15.19,0,27.5,12.31,27.5,27.5h0c0,15.19-12.31,27.5-27.5,27.5h0C12.31,55,0,42.69,0,27.5h0C0,12.31,12.31,0,27.5,0Z"/>
    <path d="m19.83,18.46c.73.65.83,1.35.35,2.16-.08.13-.1.29-.11.45.58-1.03,1-2.11,1.23-3.26.02-.08-.03-.17-.02-.25,0-.06.04-.14.09-.16.05-.02.15,0,.17.03.03.05.04.14.02.2-.16.49-.33.97-.5,1.46.03.01.05.02.08.04.39-.59.78-1.18,1.17-1.76.04-.06.12-.12.18-.11.06,0,.14.08.15.14,0,.06-.04.14-.09.19-.18.16-.38.31-.61.51.4.17.6-.02.82-.19.06-.05.14-.06.22-.08,0,0,.06.09.05.11-.05.06-.11.12-.18.14-.3.1-.61.18-.92.28-.01-.03-.03-.06-.04-.1-.16.23-.33.47-.51.73h1.08c-.17.73-.63,1.24-1.69,1.07-.56,1.03-.96,2.13-1.17,3.31.05-.1.1-.19.15-.29.49-.97,1.15-1.8,1.97-2.51.1-.08.15-.22.24-.31.05-.04.15-.08.2-.06.06.04.12.13.12.2,0,.05-.08.12-.14.16-.19.11-.42.18-.58.32-.3.26-.56.57-.79.91.31-.18.62-.36.94-.52.06-.03.15-.04.21-.01.04.02.06.12.04.17-.02.05-.09.09-.15.11-.26.09-.55.14-.79.27-.54.29-.96.81-1.11,1.27.39-.27.81-.55,1.22-.83.04-.03.1-.04.14-.03.03,0,.07.08.05.1-.02.04-.06.09-.11.1-.66.16-1.1.61-1.47,1.14-.34.49-.47,1.05-.48,1.72.07-.14.11-.22.14-.3.23-.55.62-.97,1.09-1.33.15-.12.29-.27.37-.44.39-.77,1.09-.97,1.8-.46.07.05.12.23.09.31-.31.84-.95,1.08-1.73.64-.16-.09-.27-.08-.42.02-.87.59-1.26,1.43-1.31,2.47.17-.3.36-.59.5-.9.2-.47.59-.7,1.16-.62-.05.52-.29.85-.73.9-.64.07-.83.55-.96,1.04-.09.33-.02.7.06,1.04.14-.49.27-.98.41-1.47.02-.06.09-.13.15-.15.04-.01.13.04.16.08.03.05.02.16-.01.18-.5.36-.46.92-.57,1.43-.03.15,0,.31,0,.54.07-.2.12-.33.17-.47.26-.77.74-1.4,1.36-1.91.2-.16.46-.27.71-.35.24-.07.45.05.54.28.1.25-.03.48-.25.54-.24.07-.53.08-.76,0-.32-.11-.54-.08-.75.19-.4.49-.66,1.04-.84,1.66.46-.48.9-.95,1.35-1.4.04-.04.1-.07.16-.09.02,0,.08.07.08.09-.01.06-.04.13-.09.16-.55.3-.94.77-1.29,1.28-.05.07-.08.15-.15.29.72-.43,1.38-.81,2.02-1.22.67-.43,1.38-.51,2.21-.3-.11.11-.18.2-.26.27-.58.49-1.26.67-2,.54-.28-.05-.5,0-.73.13-.35.19-.69.39-1.01.65h7.63c-.15-.41-.28-.79-.41-1.16-1.41-3.88-2.83-7.76-4.24-11.65-.06-.17-.06-.4,0-.56.75-1.98,1.53-3.94,2.29-5.92.09-.22.18-.3.43-.3,1.42.01,2.83.02,4.25,0,.28,0,.4.08.5.34,3.7,9.55,7.4,19.1,11.11,28.65.39.99.83,1.96,1.71,2.63.24.19.53.35.82.43.24.07.3.17.28.39-.01.18,0,.35,0,.53h-16.32v-.83c.52-.07,1.04-.12,1.56-.2,1.43-.21,1.92-.84,1.58-2.23-.25-1.02-.64-2.01-.99-3.01-.69-1.95-1.4-3.9-2.09-5.85-.09-.25-.21-.33-.48-.33-2.91.01-5.82.01-8.74,0-.27,0-.4.08-.48.33-.61,1.79-1.26,3.57-1.83,5.37-.33,1.04-.47,2.13-.33,3.24.14,1.1.68,1.89,1.76,2.21.67.19,1.37.31,2.06.4.32.04.43.13.39.44-.02.16,0,.33,0,.46h-9.68v-.85c1.5-.37,2.36-1.49,2.98-2.77.79-1.63,1.46-3.32,2.15-4.99.59-1.44,1.14-2.9,1.69-4.36.11-.3.25-.45.59-.41.31.04.62,0,.93,0,0-.03,0-.06.01-.08-.11-.03-.22-.05-.33-.08-.08-.02-.15-.05-.23-.08.01-.04.03-.07.04-.11.16.04.31.07.47.11l.03-.07c-.15-.08-.31-.16-.46-.25-.05-.03-.08-.1-.12-.16.07,0,.15-.04.19,0,.17.11.32.23.55.4-.06-.28-.08-.51-.18-.71-.04-.08-.24-.09-.38-.12-.21-.05-.45-.04-.64-.13-.28-.14-.37-.47-.23-.68.14-.23.46-.27.74-.07.13.09.23.2.37.32.01-.33-.12-.5-.4-.65-.77-.41-1.08-1.24-.76-2.12.33.24.65.47,1,.73-.06-.44-.08-.88-.2-1.29-.24-.88-.11-1.67.49-2.42.34.72.43,1.45.04,2.1-.38.61-.28,1.21-.19,1.83.04.25.11.49.15.65.18-1,.37-2.06.57-3.11.09-.49.22-.97.32-1.46.05-.23-.03-.42-.18-.61-.54-.68-.51-1.44.08-2.07Z"/>
  </g>
</svg>