<?xml version="1.0" encoding="UTF-8"?>
<svg id="_Слой_2" data-name="Слой 2" xmlns="http://www.w3.org/2000/svg" xmlns:xlink="http://www.w3.org/1999/xlink" viewBox="0 0 48.79 31.8">
  <defs>
    <style>
      .cls-1 {
        fill: #fff;
      }

      .cls-2 {
        fill: #4c4c4c;
      }

      .cls-3 {
        clip-path: url(#clippath);
      }

      .cls-4 {
        fill: none;
      }
    </style>
    <clipPath id="clippath">
      <rect class="cls-4" width="48.79" height="31.8"/>
    </clipPath>
  </defs>
  <g id="_Слой_1-2" data-name="Слой 1">
    <g class="cls-3">
      <path class="cls-2" d="m24.39,0h0c9.75,0,17.65,7.12,17.65,15.9h0c0,8.78-7.9,15.9-17.65,15.9h0c-9.75,0-17.65-7.12-17.65-15.9h0C6.74,7.12,14.64,0,24.39,0Z"/>
    </g>
    <path class="cls-1" d="m19.49,9.39c.47.42.54.87.23,1.4-.05.08-.06.19-.07.29.37-.67.65-1.37.8-2.12.01-.05-.02-.11-.01-.17,0-.04.03-.09.06-.1.03-.01.1,0,.11.02.02.03.03.09.01.13-.1.32-.21.63-.32.95.02,0,.03.02.05.02.25-.38.5-.76.76-1.14.02-.04.08-.08.12-.07.04,0,.09.05.1.09,0,.04-.03.09-.06.12-.12.11-.24.2-.4.33.26.11.39-.01.53-.13.04-.03.09-.04.14-.05,0,0,.04.06.03.07-.03.04-.07.08-.12.09-.2.06-.4.12-.6.18,0-.02-.02-.04-.03-.06-.11.15-.21.3-.33.48h.7c-.11.47-.41.81-1.1.7-.36.67-.62,1.39-.76,2.15.03-.06.07-.13.1-.19.32-.63.75-1.17,1.28-1.63.06-.05.1-.14.16-.2.03-.03.1-.05.13-.04.04.02.08.08.08.13,0,.03-.05.08-.09.1-.12.07-.27.12-.38.21-.19.17-.36.37-.51.59.2-.11.4-.23.61-.34.04-.02.1-.02.14,0,.02,0,.04.08.03.11-.01.03-.06.06-.09.07-.17.06-.35.09-.51.18-.35.19-.62.53-.72.82.25-.17.52-.36.79-.54.03-.02.06-.03.09-.02.02,0,.04.05.04.07-.01.03-.04.06-.07.07-.43.1-.71.4-.95.74-.22.32-.31.68-.31,1.12.04-.09.07-.14.09-.19.15-.36.4-.63.71-.87.1-.08.19-.18.24-.29.25-.5.71-.63,1.17-.3.05.03.08.15.06.2-.2.54-.62.7-1.12.42-.11-.06-.18-.05-.27,0-.56.38-.82.93-.85,1.61.11-.19.23-.38.32-.59.13-.31.38-.45.75-.4-.03.33-.19.55-.47.59-.42.05-.54.36-.62.67-.06.21-.01.45.04.68.09-.32.17-.64.27-.96.01-.04.06-.08.1-.09.03,0,.09.02.1.05.02.03.01.1,0,.12-.32.23-.3.6-.37.93-.02.1,0,.2,0,.35.05-.13.08-.22.11-.3.17-.5.48-.91.88-1.24.13-.11.3-.18.46-.23.15-.05.29.03.35.18.06.16-.02.31-.16.35-.16.04-.35.05-.5,0-.21-.07-.35-.05-.49.12-.26.32-.43.68-.55,1.08.3-.31.59-.61.88-.91.03-.03.06-.05.1-.06.01,0,.05.04.05.06,0,.04-.03.08-.06.1-.36.2-.61.5-.84.83-.03.04-.05.1-.1.19.47-.28.9-.53,1.31-.79.44-.28.9-.33,1.43-.19-.07.07-.11.13-.17.17-.38.31-.82.44-1.3.35-.18-.03-.33,0-.47.08-.23.13-.45.25-.66.43h4.96c-.1-.27-.18-.51-.27-.75-.92-2.52-1.84-5.04-2.75-7.56-.04-.11-.04-.26,0-.37.49-1.28.99-2.56,1.49-3.84.06-.14.12-.19.28-.19.92,0,1.84.01,2.76,0,.18,0,.26.05.33.22,2.4,6.2,4.8,12.4,7.21,18.6.25.65.54,1.27,1.11,1.71.16.12.34.23.53.28.16.05.19.11.18.25,0,.11,0,.23,0,.34h-10.59v-.54c.34-.04.68-.08,1.01-.13.93-.13,1.25-.54,1.02-1.45-.16-.66-.42-1.31-.64-1.95-.45-1.27-.91-2.53-1.36-3.8-.06-.16-.13-.22-.31-.22-1.89,0-3.78,0-5.67,0-.18,0-.26.05-.31.22-.39,1.16-.82,2.32-1.19,3.49-.21.68-.31,1.38-.21,2.1.09.71.44,1.23,1.14,1.43.43.13.89.2,1.34.26.2.03.28.08.26.28-.01.1,0,.21,0,.3h-6.28v-.55c.98-.24,1.53-.97,1.93-1.8.51-1.06.95-2.15,1.4-3.24.38-.94.74-1.88,1.1-2.83.07-.2.16-.29.39-.27.2.02.4,0,.6,0,0-.02,0-.04,0-.05-.07-.02-.14-.03-.21-.05-.05-.01-.1-.04-.15-.05,0-.02.02-.05.03-.07.1.02.2.05.3.07l.02-.04c-.1-.05-.2-.1-.3-.16-.03-.02-.05-.07-.08-.1.04,0,.1-.02.13,0,.11.07.21.15.36.26-.04-.18-.05-.33-.12-.46-.03-.05-.16-.06-.25-.08-.14-.03-.29-.03-.41-.09-.18-.09-.24-.31-.15-.44.09-.15.3-.18.48-.05.08.06.15.13.24.21,0-.21-.08-.33-.26-.42-.5-.27-.7-.81-.49-1.37.21.16.42.31.65.47-.04-.28-.06-.57-.13-.84-.15-.57-.07-1.08.32-1.57.22.47.28.94.02,1.36-.24.4-.18.78-.12,1.19.02.16.07.32.1.42.12-.65.24-1.33.37-2.02.06-.32.14-.63.21-.95.03-.15-.02-.27-.12-.39-.35-.44-.33-.93.05-1.34Z"/>
  </g>
</svg>