<?xml version="1.0" encoding="UTF-8"?>
<svg id="_Слой_2" data-name="Слой 2" xmlns="http://www.w3.org/2000/svg" viewBox="0 0 80.84 64.58">
  <defs>
    <style>
      .cls-1 {
        fill: #fff;
      }
    </style>
  </defs>
  <g id="_Слой_1-2" data-name="Слой 1">
    <path class="cls-1" d="m57.65,46.16c.61,2.23,1.28,4.42,1.79,6.64.39,1.69.65,3.42.88,5.14.36,2.74-.98,5.73-2.96,6.12-2.27.44-4.62.91-6.93,0-1.97-.78-3.94-1.53-5.9-2.33-11.36-4.67-20.43-12.49-28.39-21.53-5.71-6.49-10.63-13.65-14.27-21.57C.05,14.68-.78,8.78.94,4.72c4.33-10.23,20.71-1.28,26.83,3,.88.61,1.93.98,2.8,1.6.63.44,1.14,1.08,1.61,1.69.33.43.5.98.81,1.62,2.65-2.13,5.64-3.05,8.81-3.21,5.56-.29,10.15,1.66,13.71,6.09,2.32,2.89,3.96,6.01,4.73,9.63.68,3.19-.05,6.22-1.24,9.07-.58,1.38-2.03,2.4-3.17,3.68.6-.15,1.12-.29,1.65-.4,2.29-.5,4.53-.26,6.59.82,3.06,1.62,5.82,1.21,8.31-1.04,1.56-1.4,2.96-2.98,4.47-4.45.41-.39.94-.87,1.42-.89.3-.01.72.75.91,1.23.55,1.39.99,2.83,1.5,4.24.67,1.85-.96,4.57-3.16,5.04-4.94,1.05-9.81.83-14.58-.92-1.28-.47-2.48-1.15-3.77-1.57-.63-.21-1.39-.05-2.09-.05-.02.19-.04.37-.05.56.74.23,1.5.4,2.21.7,2.72,1.14,5.43,2.31,8.13,3.49.95.41,1.84.96,2.81,1.3,2.02.71,3.95.78,5.56-1.03.53-.6,1.22-1.14,2.08-.45.81.65,1.1,2.04.45,2.77-1.28,1.43-1.62,3.13-1.71,4.95-.05,1.08-.08,2.17-.28,3.22-.08.41-.56.97-.93,1.03-.36.06-.95-.31-1.22-.66-4.17-5.28-9.67-8.33-16.18-9.67-.12-.02-.26.06-.32.07ZM31.33,13.48c-.55-.85-.9-1.92-1.64-2.41-2.45-1.65-4.99-3.17-7.57-4.62C16.66,3.39,8.67-.42,4.2,5.67c-3.11,4.24-2.84,8.5-.45,13.17,4.98,9.69,11.32,18.36,19.28,25.86,7.25,6.84,15.19,12.58,24.54,16.2,2.31.89,4.56,2.05,7.18,1.72,2.77-.34,4-1.63,3.82-4.38-.28-4.12-.6-8.25-2.45-11.85-1.16-.34-2.2-.69-3.27-.95-.4-.1-1-.15-1.26.07-1.71,1.47-3.61,1.26-5.26.25-1.98-1.2-3.91-2.62-5.55-4.26-6.4-6.38-9.98-14.48-13.42-22.64-.69-1.64-.17-2.76,1.36-3.68.8-.48,1.57-1.01,2.62-1.7Zm3.3.06c.22.89.57,1.64.56,2.38-.02,2.26.68,4.24,1.99,6.04,3.17,4.35,6.92,8.15,11.02,11.6,1.31,1.1,2.91,1.87,4.42,2.71.31.17.93.15,1.22-.05,3.52-2.49,4.74-6.01,4.26-10.15-.42-3.66-2.2-6.74-4.47-9.57-4.8-5.97-13.31-6.27-19-2.96Zm34.62,27.31c.04.15.07.31.11.46,2.6-.24,5.2-.41,7.78-.76.51-.07,1.09-.68,1.38-1.19.99-1.74-.66-3.13-.53-5.14-2.67,3-5.39,5.25-8.74,6.63Zm5.94,6.95c-2.39,1.16-4.81.56-7.15-.57-1.69-.82-3.26-1.93-5-2.6-2.81-1.08-5.72-1.9-8.59-2.83-.09.23-.17.45-.26.68,1.19.51,2.34,1.26,3.58,1.5,3.78.74,7.36,1.93,10.56,4.12,2.07,1.41,4.1,2.89,5.8,4.09.33-1.34.69-2.84,1.07-4.38Zm-38.85-15.62c.82-.14,1.59-.28,2.36-.42,0-.07,0-.15,0-.22-.96-.23-1.92-.47-3.19-.78.41.7.62,1.06.83,1.42Zm14.45,5.95c-.81,1.29.72,1.32,1.09,2.01.04-.48.09-.96.13-1.44-.47-.22-.85-.4-1.22-.57Z"/>
  </g>
</svg>