<?xml version="1.0" encoding="UTF-8"?>
<svg id="_Слой_2" data-name="Слой 2" xmlns="http://www.w3.org/2000/svg" viewBox="0 0 97.6 57.86">
  <defs>
    <style>
      .cls-1 {
        fill: #fff;
      }
    </style>
  </defs>
  <g id="_Слой_1-2" data-name="Слой 1">
    <g>
      <path class="cls-1" d="m82.68,10.17c.27-.05.54-.08.8-.15.35-.1.69-.24,1.04-.35.79-.25,1.58-.5,2.37-.74,1.42-.43,2.85-.85,4.27-1.28.68-.21,1.35-.43,2.02-.64.19-.06.39-.1.58-.17.22-.08.43-.18.65-.27.32-.13.63-.28.96-.39.24-.09.5-.15.75-.21.1-.02.2,0,.3-.02.08-.01.16-.04.22-.09.2-.16.37-.34.58-.49.09-.07.22-.07.34-.11.02.03.04.05.05.08-.06.09-.11.19-.19.27-.78.74-1.55,1.5-2.36,2.21-1.44,1.27-2.96,2.45-4.57,3.5-.58.38-1.19.71-1.8,1.03-.51.26-1.06.35-1.62.22-.52-.12-.9-.43-1.04-.96-.08-.29-.14-.59-.21-.88-.05-.23-.13-.28-.34-.13-.32.24-.63.51-.94.77-.45.38-.9.77-1.36,1.15-.23.19-.5.3-.82.28-.24-.01-.38-.13-.44-.34-.05-.17-.07-.35-.16-.58-.13.15-.24.32-.39.45-1.29,1.26-2.73,2.33-4.32,3.17-.46.24-.96.44-1.46.58-.71.19-1.14-.17-1.25-.9-.09-.6.04-1.18.15-1.76,0-.05.01-.09.02-.16-1.28.42-2.54.83-3.8,1.23-.25.08-.5.15-.75.22-.49.14-.86.48-1.28.75-1.07.66-2.14,1.32-3.21,1.97-.16.1-.36.15-.55.19-.43.11-.77-.06-1-.43-.08-.13-.08-.3-.13-.47-.21.08-.46.17-.72.26-.44.15-.89.29-1.33.44-.14.05-.28.13-.38.23-.63.59-1.23,1.2-1.86,1.79-.9.84-1.83,1.65-2.9,2.26-.24.14-.51.24-.78.32-.32.1-.61-.03-.7-.36-.13-.49-.21-1-.3-1.5-.02-.11-.03-.22-.04-.35-.13.04-.24.06-.34.1-.89.33-1.78.68-2.67,1-.46.17-.94.29-1.4.46-.86.31-1.72.63-2.58.95-.08.03-.17.13-.19.22-.12.41-.21.82-.34,1.23-.05.15-.16.3-.28.39-.17.13-.33.08-.38-.13-.09-.33-.13-.66-.19-1,0-.04,0-.08-.02-.15-.16.05-.32.08-.46.14-1.31.52-2.61,1.05-3.91,1.58-.34.14-.68.27-1.02.42-.05.02-.11.13-.11.19.17,1.39.35,2.78.52,4.17.02.2.13.21.28.2.61-.04,1.23-.07,1.84-.11,1.1-.08,2.21-.15,3.31-.24,1.02-.08,2.04-.18,3.07-.28,1.01-.09,2.01-.19,3.02-.29,1.29-.12,2.57-.25,3.86-.37,1.47-.13,2.94-.27,4.41-.37,1.51-.1,3.02-.18,4.52-.22.85-.03,1.71-.03,2.54.17.18.05.36.11.53.19.36.17.44.49.23.82-.26.4-.62.69-1.03.91-.85.47-1.7.96-2.58,1.36-1.47.67-2.96,1.29-4.45,1.91-1.49.61-3,1.19-4.51,1.77-1.03.4-2.06.78-3.1,1.16-1.42.52-2.85,1.03-4.27,1.54-.98.35-1.94.73-2.92,1.08-1.05.38-2.11.74-3.16,1.12-1.62.58-3.23,1.16-4.85,1.73-1.68.6-3.37,1.21-5.05,1.8-1.13.4-2.26.79-3.39,1.19-1.46.52-2.91,1.06-4.37,1.58-1.17.42-2.34.83-3.5,1.26-1.73.64-3.47,1.26-5.19,1.93-2.3.89-4.59,1.79-6.88,2.71-1.03.41-2.05.85-3.06,1.3-1.2.54-2.39,1.09-3.46,1.87-.27.2-.53.43-.74.7-.34.42-.18.89-.07,1.35.03.11.07.21.08.31,0,.1,0,.25-.06.29-.11.07-.27.08-.41.1-.03,0-.09-.08-.1-.12-.08-.37-.17-.75-.23-1.12-.08-.51.18-.91.51-1.26.52-.53,1.14-.92,1.79-1.28,1.64-.89,3.34-1.64,5.06-2.35,1.63-.67,3.26-1.32,4.9-1.96.89-.35,1.8-.67,2.69-1.01.9-.34,1.79-.69,2.69-1.02.96-.36,1.92-.7,2.89-1.05,1.44-.53,2.88-1.06,4.33-1.58,1.17-.42,2.34-.82,3.51-1.24,1.93-.69,3.85-1.38,5.78-2.07,1.12-.4,2.25-.79,3.37-1.18,1.4-.5,2.8-1,4.19-1.5,1.47-.53,2.95-1.05,4.42-1.59,1.27-.46,2.55-.92,3.82-1.39,1.72-.64,3.43-1.28,5.15-1.92,1.1-.42,2.2-.83,3.29-1.27,1.39-.57,2.78-1.14,4.14-1.75,1.02-.46,2.01-.98,3-1.49.31-.16.59-.38.89-.58.07-.05.13-.11.19-.17.32-.33.29-.43-.13-.57-.67-.22-1.37-.22-2.06-.23-2.08-.02-4.14.15-6.21.33-1.19.1-2.39.2-3.58.31-1.44.13-2.88.28-4.31.42-.98.09-1.96.19-2.93.27-2.1.17-4.2.34-6.31.5-.42.03-.85.05-1.27.07.12.91.33,1.78.76,2.59.15.28.24.59.3.9.1.47-.13.85-.48,1.13-.23.19-.4.11-.45-.18-.14-.9-.29-1.8-.43-2.69-.05-.33-.21-.6-.41-.85-.21-.26-.43-.51-.66-.75-.06-.06-.18-.1-.27-.09-1.34.03-2.68.04-4-.16-.42-.06-.84-.2-1.24-.36-.18-.07-.33-.27-.45-.44-.13-.19-.1-.41.02-.61.28-.49.72-.82,1.17-1.14.05-.04.1-.07.15-.1-2.13-.83-4.34-1.23-6.62-1.47-.03.09-.06.18-.08.27-.45,1.66-.92,3.31-1.33,4.97-.51,2.04-.99,4.1-1.42,6.16-.4,1.88-.72,3.78-1.08,5.68-.06.31-.05.66-.3.91-.06.06-.16.15-.21.13-.12-.05-.24-.13-.22-.31.06-.44.11-.87.17-1.31.31-2.2.71-4.38,1.2-6.54.53-2.32,1.14-4.62,1.72-6.93.23-.93.49-1.85.74-2.78.08-.31.08-.32-.25-.34-.39-.03-.78-.02-1.16-.09-.66-.13-.86-.68-.44-1.22.3-.4.71-.68,1.16-.88.45-.2.9-.38,1.36-.55.19-.07.28-.17.33-.37.63-2.18,1.3-4.34,2.13-6.45,1-2.57,2.14-5.06,3.57-7.43.69-1.14,1.42-2.27,2.29-3.28.26-.31.55-.59.84-.87.35-.35.76-.39,1.2-.21.44.17.67.53.71.98.05.76.07,1.51.1,2.27.08,1.99.15,3.99.23,5.98.06,1.5.15,3,.23,4.5.03.62.07,1.24.1,1.86,0,.15.04.18.2.15,1.7-.39,3.4-.78,5.11-1.17.08-.02.16-.03.23-.04.31-.03.5.11.53.43.09.95.17,1.9.25,2.86.2-.05.3-.2.36-.41.26-.92.51-1.85.78-2.77.3-1.02.58-2.06,1.09-3.01.13-.25.31-.49.51-.69.3-.3.76-.28,1,.08.18.27.31.6.38.93.11.56.16,1.14.22,1.72.07.64.11,1.28.17,1.92,0,.08.02.16.04.23.02.07.08.18.11.17.08-.01.19-.05.23-.11.12-.16.22-.34.31-.52.35-.69.68-1.39,1.04-2.07.23-.43.51-.84.79-1.24.16-.24.38-.48.71-.4.35.08.42.4.46.69.09.75.15,1.51.23,2.26,0,.04.01.08.02.16.23-.07.45-.14.67-.21,1.54-.52,3.07-1.06,4.61-1.56.44-.14.77-.4,1.07-.72.56-.6,1.14-1.19,1.71-1.79.13-.14.24-.3.38-.42.16-.13.33-.24.52-.34.14-.07.19.05.19.16-.01.28-.04.56-.07.84-.03.33-.05.66-.08,1.03.18-.06.34-.12.5-.18,1.21-.39,2.41-.8,3.62-1.17.67-.21,1.25-.55,1.81-.96.8-.58,1.6-1.17,2.41-1.73.18-.12.2-.23.11-.41-.19-.39-.29-.79-.2-1.22.12-.56.38-1.04.95-1.26.46-.18.88.1.93.58.06.53-.14.98-.44,1.39-.1.14-.23.26-.33.4-.04.05-.05.12-.08.19.06.02.12.05.18.06.39.06.77.11,1.16.17.09.02.19.07.27.13.18.14.14.33-.06.42-.06.03-.12.06-.18.09,0,.02.01.03.02.05.32-.1.63-.21.95-.31,1.94-.61,3.88-1.21,5.82-1.82.33-.1.65-.24.98-.36,0,0,0,0,0,0Zm3.55-.49c.06.03.15.06.17.11.04.11.05.24.06.36.02.35.02.71.05,1.06.03.38.27.59.63.69.41.11.83.1,1.21-.07.52-.24,1.04-.5,1.54-.79,1.79-1.07,3.4-2.39,5.02-3.7.14-.11.28-.21.43-.31-.2,0-.39.09-.57.09-.38,0-.72.09-1.08.2-1.37.43-2.75.85-4.13,1.27-1.03.31-2.06.62-3.08.93-.09.03-.16.11-.23.16-.07,0-.14-.03-.2-.01-.86.26-1.72.53-2.58.79-.25.08-.51.16-.63.42-.17.4-.32.81-.46,1.23-.04.11.06.2.19.13.17-.08.35-.16.49-.27.75-.62,1.51-1.23,2.24-1.88.28-.25.59-.36.95-.41Zm-56.36,12.98c.13-.03.21-.04.28-.06,1.04-.26,2.09-.52,3.13-.77,2.16-.51,4.33-1.02,6.49-1.52.15-.03.19-.1.18-.23-.02-.21-.04-.42-.05-.63-.1-2.09-.22-4.17-.3-6.26-.06-1.43-.08-2.86-.12-4.29-.02-.99-.03-1.98-.07-2.97-.01-.32-.07-.65-.18-.95-.13-.34-.42-.39-.71-.17-.07.05-.13.12-.18.19-.35.5-.71.98-1.03,1.5-1.54,2.46-2.91,5.02-4.14,7.65-1.21,2.59-2.3,5.23-3.14,7.97-.05.16-.1.33-.16.54Zm6.08,4.3c1.46-.72,2.94-1.45,4.41-2.17-.03-.09-.09-.2-.1-.31-.07-.83-.12-1.67-.19-2.51-.03-.36-.06-.73-.09-1.11-.12.02-.22.03-.31.05-2.31.61-4.63,1.23-6.94,1.85-.95.25-1.91.51-2.86.77-.21.06-.35.16-.4.39-.09.38-.21.75-.32,1.12q-.08.27.19.31c1.1.18,2.21.33,3.3.57,1.05.23,2.08.57,3.12.86.11.03.23.06.18.17Zm4.9-2.36c.37-.15.73-.3,1.09-.45.7-.29,1.4-.58,2.1-.86.7-.28,1.42-.54,2.12-.81.06-.03.15-.11.15-.16-.02-.29-.05-.58-.1-.86-.1-.53-.21-1.06-.31-1.59-.05-.28-.05-.3-.33-.25-.81.16-1.62.34-2.43.52-.79.17-1.58.36-2.36.54-.13.03-.22.08-.2.25.04.38.07.76.1,1.14.06.83.12,1.67.18,2.54Zm41.36-13.67s-.04-.05-.07-.07c-.26.08-.52.14-.77.23-1.19.38-2.37.76-3.56,1.14-.68.22-1.36.45-2.05.62-.47.12-.69.37-.72.84-.03.46-.11.91-.14,1.37-.01.27.13.38.4.36.16-.01.33-.04.49-.08.82-.23,1.56-.63,2.28-1.07,1.45-.88,2.71-1.98,3.89-3.19.06-.06.15-.1.23-.15Zm-34.44,10.92c1.11-.41,2.17-.8,3.25-1.19-.02-.1-.04-.19-.06-.29-.12-1-.22-1.99-.35-2.98-.06-.47-.16-.94-.29-1.39-.08-.29-.41-.33-.59-.09-.11.14-.2.29-.27.44-.16.37-.33.74-.45,1.12-.39,1.27-.76,2.54-1.13,3.81-.05.17-.07.35-.12.57Zm-6.91,7.84c-.19-1.5-.37-2.92-.55-4.4-1.25.62-2.46,1.21-3.69,1.82,1.43.59,2.72,1.36,3.85,2.38.09.08.22.11.4.2Zm14.43-10.09c.04.32.07.63.12.93.05.27.11.55.18.82.04.15.16.2.3.13.36-.19.73-.35,1.06-.57,1.27-.86,2.29-2,3.45-2.98.01-.01.01-.04.03-.08-1.74.6-3.45,1.18-5.15,1.77Zm-15.59,10.04c-.35-.26-.66-.51-.99-.74-.73-.51-1.51-.92-2.31-1.31-.22-.11-.37-.08-.54.05-.28.22-.56.43-.82.67-.12.11-.19.27-.26.41-.08.17-.03.32.14.4.26.11.53.24.81.3,1.31.25,2.64.21,3.99.22Zm12.25-9.4s.03.05.04.07c1-.35,2-.71,3-1.06-.23.06-.25-.1-.26-.26,0-.08-.02-.16-.03-.24-.05-.55-.1-1.11-.17-1.66-.01-.12-.09-.23-.14-.35-.12.08-.26.13-.34.23-.22.3-.43.61-.61.94-.3.55-.56,1.13-.84,1.68-.14.28-.24.6-.65.63Zm18.39-6.18s0,.03.01.05c.06-.01.13-.02.19-.04,1.25-.4,2.5-.8,3.74-1.21.12-.04.22-.14.32-.21-.12-.08-.22-.19-.35-.22-.32-.09-.64-.15-.97-.21-.09-.02-.2.01-.28.06-.33.24-.65.51-.98.75-.43.3-.87.59-1.31.87-.11.07-.26.1-.39.15Zm-6.02,2.5c.05.11.09.19.12.27.13.3.23.35.54.25.18-.06.36-.12.52-.21.82-.46,1.64-.94,2.45-1.41.02-.01.03-.04.04-.06,0-.02-.02-.04-.03-.06-1.21.41-2.42.81-3.64,1.22Zm-37.56,8.4c.12.06.17.09.22.1.43.06.85.12,1.28.17.03,0,.1-.04.11-.08.13-.4.25-.8.39-1.26-.19.06-.3.09-.41.14-.42.19-.83.38-1.24.59-.12.06-.21.19-.35.32Zm46.47-13.54c.16-.21.32-.38.45-.57.22-.32.36-.68.32-1.08,0-.07-.05-.19-.09-.2-.07-.02-.17.02-.23.07-.29.25-.48.58-.54.96-.04.26-.1.52.09.81Zm-9.62,3.92s-.04-.03-.06-.04c-.46.5-.92,1-1.42,1.54.52-.19.98-.36,1.45-.53.04-.02.1-.08.09-.12-.01-.29-.04-.57-.06-.86Z"/>
      <path class="cls-1" d="m3.02,33.16c.08-.34.15-.67.23-1.01.34-1.5.67-3,1.01-4.5.41-1.8.96-3.55,1.59-5.28.52-1.42,1.08-2.83,1.9-4.12.38-.6.82-1.16,1.39-1.59.6-.45,1.27-.74,2.04-.59.94.18,1.55.77,1.87,1.65.46,1.24.19,2.4-.37,3.53-.6,1.2-1.44,2.23-2.26,3.27-.52.66-1.04,1.32-1.55,1.98-.12.16-.26.36-.15.58.11.22.36.22.56.2.56-.06,1.11-.14,1.67-.23,1.01-.15,2.02-.27,3.03-.03.57.13,1.09.37,1.58.68.16.11.29.1.46.02.57-.28,1.14-.57,1.72-.83.3-.13.62-.22.94-.32.08-.02.16-.02.25-.03,0,.02.02.03.02.05-.07.06-.14.13-.22.18-.68.39-1.37.78-2.05,1.17-.15.09-.28.19-.44.3.1.12.17.22.25.31.9,1.05,1.31,2.29,1.37,3.66.08,1.79-.41,3.44-1.24,5-1.01,1.9-2.42,3.46-4.01,4.88-1.61,1.44-3.39,2.62-5.36,3.51-1.24.56-2.53.97-3.89,1.12-.76.08-1.51.08-2.24-.22-.72-.3-1.08-.83-1.12-1.6-.04-.97.25-1.85.63-2.72.46-1.05,1.04-2.05,1.75-2.96.17-.21.24-.44.22-.72-.06-1.35-.11-2.7-.15-4.05-.05-1.76-.08-3.51-.12-5.27-.05-2.23-.1-4.46-.15-6.7-.03-1.53-.05-3.06-.07-4.59,0-.26.07-.49.27-.66.16-.15.29-.1.34.11.03.13.04.27.04.41,0,2.52-.02,5.03.01,7.55.03,2.49.12,4.97.18,7.45,0,.13.02.26.04.39,0,0,.01,0,.02,0Zm-.39,6.69c-.16.21-.32.38-.44.57-.36.64-.74,1.28-1.05,1.94-.36.75-.62,1.52-.59,2.37.03.78.35,1.19,1.12,1.29.42.05.85.05,1.27.02,1.24-.1,2.4-.5,3.54-.96,1.94-.79,3.75-1.82,5.36-3.18,1.48-1.24,2.77-2.65,3.75-4.32,1.09-1.86,1.77-3.84,1.53-6.04-.12-1.07-.51-2.04-1.28-2.83-.09-.09-.16-.11-.28-.03-.42.28-.85.55-1.27.83-2.23,1.5-4.39,3.1-6.46,4.82-1.62,1.34-3.1,2.82-4.43,4.45-.04.05-.07.14-.07.21.03.76.07,1.52.1,2.27.03.55.05,1.1.08,1.64.01.25-.14.39-.39.51-.4-1.16-.29-2.37-.49-3.56Zm12.58-11.69c-.23-.13-.4-.23-.57-.31-.65-.3-1.35-.43-2.06-.43-.83,0-1.64.11-2.45.28-.49.1-.98.18-1.48.06-.44-.11-.67-.51-.51-.93.08-.22.19-.44.32-.63.39-.56.81-1.11,1.21-1.67.65-.93,1.33-1.86,1.93-2.82.62-.99,1.01-2.07.94-3.28-.05-.96-.82-1.79-1.74-1.75-.5.02-.94.22-1.34.51-.69.51-1.19,1.18-1.62,1.9-.86,1.43-1.45,2.98-1.95,4.57-.44,1.4-.89,2.79-1.28,4.2-.39,1.41-.74,2.83-.93,4.29-.11.85-.24,1.7-.3,2.56-.06.99-.06,1.99-.08,2.99,0,.06.02.12.04.2,3.45-3.86,7.46-6.98,11.87-9.73Z"/>
      <path class="cls-1" d="m95.39,3.5c-.17,0-.28-.1-.32-.24-.26-.95-.51-1.91-.75-2.87-.06-.25.1-.42.32-.38.07.01.15.06.19.12.06.1.1.22.13.34.24.86.47,1.72.7,2.59.08.29-.02.45-.28.45Z"/>
      <path class="cls-1" d="m82.69,10.18s.01-.11.04-.14c.47-.57.91-1.16,1.62-1.46.57-.23,1.07-.08,1.35.47.03.05.02.12.02.17-.06,0-.13.04-.18.01-.12-.06-.23-.13-.33-.21-.18-.15-.38-.17-.56-.03-.31.23-.63.46-.91.72-.2.19-.4.32-.67.34-.13.01-.26.08-.39.12,0,0,0,0,0,0Z"/>
      <path class="cls-1" d="m64.68,11.06c-.02.2-.12.41-.31.57-.11.1-.21.1-.31-.03-.2-.26-.3-.54-.17-.86.12-.31.29-.36.56-.17.16.11.23.25.22.49Z"/>
    </g>
  </g>
</svg>