<?xml version="1.0" encoding="UTF-8"?>
<svg id="_Слой_2" data-name="Слой 2" xmlns="http://www.w3.org/2000/svg" viewBox="0 0 27.06 23.17">
  <defs>
    <style>
      .cls-1 {
        fill: #fff;
      }
    </style>
  </defs>
  <g id="_Слой_1-2" data-name="Слой 1">
    <path class="cls-1" d="m27.06,1.67c-.15,1.1-.26,2.21-.45,3.31-.84,4.92-1.7,9.83-2.57,14.75-.13.73-.32,1.46-.57,2.16-.44,1.2-1.35,1.59-2.52,1.07-.57-.25-1.11-.62-1.62-.99-2.15-1.55-4.29-3.13-6.43-4.7-.3-.22-.6-.46-.86-.74-.62-.65-.66-1.29-.07-1.96.56-.64,1.18-1.24,1.79-1.83,1.88-1.81,3.77-3.6,5.64-5.41.26-.25.5-.54.74-.81.17-.19.27-.44.05-.61-.13-.1-.44-.12-.59-.04-.83.49-1.65,1.01-2.45,1.55-2.65,1.78-5.3,3.57-7.95,5.35-.26.18-.54.33-.82.49-.88.49-1.82.69-2.79.38-1.6-.5-3.18-1.04-4.77-1.58-.18-.06-.35-.18-.5-.3-.41-.34-.47-.88-.06-1.21.42-.34.9-.64,1.39-.86,2.62-1.15,5.24-2.3,7.88-3.41,4.53-1.89,9.06-3.75,13.61-5.6.61-.25,1.25-.43,1.89-.58,1.02-.25,2.06.03,2.01,1.59Z"/>
  </g>
</svg>