<?xml version="1.0" encoding="UTF-8"?>
<svg id="_Слой_2" data-name="Слой 2" xmlns="http://www.w3.org/2000/svg" viewBox="0 0 37.4 22.26">
  <defs>
    <style>
      .cls-1 {
        fill: #fff;
      }
    </style>
  </defs>
  <g id="_Слой_1-2" data-name="Слой 1">
    <path class="cls-1" d="m17.55,0c1,0,2,0,3,0,.95,0,1.33.36,1.33,1.32.01,2.62,0,5.24.01,7.86,0,.29.02.58.08.87.14.67.56.89,1.11.48.65-.49,1.27-1.05,1.78-1.67,1.8-2.18,3.11-4.65,4.28-7.21.11-.25.22-.5.35-.74.33-.58.84-.9,1.52-.9,1.47,0,2.95-.02,4.42,0,.96.01,1.41.56,1.11,1.46-.3.91-.65,1.83-1.14,2.64-1.29,2.15-2.67,4.25-4.02,6.37-.16.25-.33.48-.48.73-.28.47-.27.94.08,1.37.27.34.58.65.87.98,1.5,1.71,3.02,3.4,4.48,5.14.4.48.69,1.07.93,1.66.42,1.06-.07,1.79-1.22,1.88-.31.02-.62.01-.93.01-.98,0-1.97-.03-2.95,0-.97.04-1.73-.32-2.38-1.01-.87-.93-1.7-1.9-2.62-2.78-.85-.82-1.76-1.58-2.71-2.28-.43-.32-1.02-.49-1.56-.58-.58-.1-.88.16-.92.74-.07,1.16-.08,2.33-.08,3.49-.01,1.94-.37,2.32-2.35,2.39-2.35.09-4.54-.5-6.6-1.59-2.25-1.2-4.16-2.82-5.7-4.85C4.42,12.08,2.06,8.1.57,3.65.34,2.95.17,2.22.03,1.49-.14.59.33.03,1.24.01c1.49-.02,2.99,0,4.48,0,.65,0,1.12.32,1.39.89.23.48.4.98.58,1.47,1.06,2.82,2.33,5.54,4.11,7.98.48.66,1.04,1.27,1.66,1.8.68.59,1.15.36,1.3-.53.02-.09.05-.18.05-.27-.02-2.33-.03-4.66-.09-6.98-.02-.82-.38-1.54-.89-2.19-.12-.16-.25-.31-.36-.48-.24-.34-.38-.71-.17-1.12C13.51.17,13.87,0,14.33,0c1.07,0,2.15,0,3.22,0Z"/>
  </g>
</svg>